<svg xmlns="http://www.w3.org/2000/svg" xmlns:xlink="http://www.w3.org/1999/xlink" width="1920" zoomAndPan="magnify" viewBox="0 0 1440 809.999993" height="1080" preserveAspectRatio="xMidYMid meet" version="1.0"><defs><clipPath id="946672af4f"><path d="M 755 306 L 858.238281 306 L 858.238281 414 L 755 414 Z M 755 306 " clip-rule="nonzero"/></clipPath></defs><rect x="-144" width="1728" fill="#ffffff" y="-80.999999" height="971.999992" fill-opacity="1"/><rect x="-144" width="1728" fill="#ffffff" y="-80.999999" height="971.999992" fill-opacity="1"/><path fill="#f7c920" d="M 600.070312 278.367188 C 593.195312 281.941406 586.289062 287.316406 584.894531 294.941406 C 584.109375 299.332031 585.265625 303.824219 586.664062 308.042969 C 587.855469 311.546875 589.386719 315.222656 592.449219 317.300781 C 594.386719 318.628906 596.769531 319.136719 599.050781 319.648438 C 607.796875 321.554688 616.609375 323.492188 625.5625 323.597656 C 631.722656 323.699219 637.878906 322.914062 643.972656 321.929688 C 677.460938 316.484375 709.757812 304.128906 738.480469 286.09375 C 741.78125 284.015625 745.148438 281.703125 746.78125 278.164062 C 747.90625 275.714844 748.042969 272.957031 747.941406 270.269531 C 747.632812 263.9375 745.933594 257.675781 742.289062 252.265625 C 738.34375 247.398438 731.332031 246.648438 725.105469 246.308594 C 711.253906 245.527344 697.265625 244.914062 683.550781 246.957031 C 672.183594 248.65625 661.191406 252.128906 650.269531 255.601562 C 632.777344 261.148438 616.679688 269.65625 600.039062 278.332031 Z M 600.070312 278.367188 " fill-opacity="1" fill-rule="nonzero"/><path fill="#f7c920" d="M 706.828125 347.621094 C 690.222656 347.757812 674.976562 356.574219 661.464844 366.203125 C 652.34375 372.703125 643.460938 379.78125 636.929688 388.867188 C 632.46875 395.0625 629.203125 402.105469 627.332031 409.527344 C 626.378906 413.234375 625.800781 417.117188 626.410156 420.925781 C 626.820312 423.511719 627.808594 425.996094 628.964844 428.3125 C 631.585938 433.554688 635.191406 438.28125 640.332031 442.164062 C 645.980469 447.472656 654.625 448.050781 662.316406 446.960938 C 679.230469 444.578125 694.644531 435.902344 708.226562 425.554688 C 712.886719 422.015625 717.414062 418.238281 721.257812 413.8125 C 725.003906 409.527344 728.03125 404.726562 731.058594 399.894531 C 734.667969 394.109375 738.375 387.914062 738.511719 381.074219 C 738.582031 378.148438 737.96875 375.257812 737.117188 372.464844 C 735.042969 365.625 731.46875 359.089844 726.089844 354.359375 C 720.714844 349.628906 713.5 347.589844 706.898438 347.65625 Z M 706.828125 347.621094 " fill-opacity="1" fill-rule="nonzero"/><path fill="#f7c920" d="M 857.421875 398.125 C 850.070312 368.6875 828.355469 344.832031 804.398438 326.214844 C 795.585938 319.375 786.191406 312.976562 775.574219 309.609375 C 774.109375 309.132812 772.542969 308.722656 771.011719 308.960938 C 768.9375 309.269531 767.203125 310.628906 765.601562 311.957031 C 762.539062 314.476562 759.339844 317.164062 757.910156 320.90625 C 756.175781 325.46875 757.46875 330.605469 759.203125 335.167969 C 769.039062 360.859375 791.398438 379.339844 812.976562 396.457031 C 817.363281 399.964844 821.789062 403.433594 826.554688 406.394531 C 830.09375 408.605469 833.90625 410.511719 838.023438 411.261719 C 842.140625 412.011719 846.597656 411.433594 850 409.015625 C 853.300781 406.667969 855.207031 402.890625 857.421875 398.160156 Z M 857.421875 398.125 " fill-opacity="1" fill-rule="nonzero"/><path fill="#f7c920" d="M 792.894531 472.179688 C 793.304688 462.785156 786.226562 454.6875 778.398438 449.445312 C 765.464844 440.800781 749.300781 437.160156 733.917969 439.441406 C 724.765625 440.800781 715.066406 444.917969 711.117188 453.324219 C 709.109375 457.613281 708.835938 462.546875 709.585938 467.210938 C 709.960938 469.457031 710.539062 471.667969 711.695312 473.640625 C 713.089844 475.992188 715.167969 477.792969 717.3125 479.425781 C 730.515625 489.601562 747.125 495.21875 763.796875 495.117188 C 771.011719 495.082031 778.535156 493.890625 784.421875 489.738281 C 790.308594 485.585938 792.554688 478 792.828125 472.179688 Z M 792.894531 472.179688 " fill-opacity="1" fill-rule="nonzero"/><path fill="#f7c920" d="M 798.410156 262.949219 C 796.195312 258.765625 793.132812 255.023438 789.457031 252.027344 C 786.566406 256.347656 782.890625 260.160156 778.703125 263.222656 C 778.332031 263.496094 777.886719 263.835938 777.820312 264.3125 C 777.75 264.824219 778.160156 265.300781 778.535156 265.640625 C 781.460938 268.394531 784.863281 270.710938 788.539062 272.410156 C 789.050781 272.648438 789.628906 272.886719 790.171875 272.71875 C 790.582031 272.617188 790.921875 272.277344 791.226562 271.96875 C 794.085938 269.078125 796.945312 266.183594 798.410156 262.917969 Z M 798.410156 262.949219 " fill-opacity="1" fill-rule="nonzero"/><path fill="#f7c920" d="M 816.308594 431.917969 C 816.582031 430.457031 815.492188 429.128906 814.472656 428.039062 C 813.925781 427.425781 813.214844 426.78125 812.394531 426.949219 C 811.851562 427.085938 811.476562 427.597656 811.101562 428.039062 C 809.367188 430.320312 807.121094 432.191406 804.601562 433.519531 C 806.714844 436.480469 809.539062 438.929688 812.769531 440.597656 C 813.007812 440.734375 813.28125 440.835938 813.519531 440.800781 C 813.859375 440.734375 814.097656 440.425781 814.269531 440.15625 C 814.746094 439.472656 815.222656 438.792969 815.699219 438.113281 C 816.480469 436.957031 817.296875 435.800781 817.636719 434.4375 C 817.976562 433.078125 817.773438 431.511719 816.277344 431.953125 Z M 816.308594 431.917969 " fill-opacity="1" fill-rule="nonzero"/><path fill="#f7c920" d="M 734.972656 317.46875 L 730.550781 312.46875 C 730.277344 312.160156 729.972656 311.820312 729.5625 311.71875 C 728.746094 311.515625 728.03125 312.296875 727.519531 312.976562 C 726.058594 315.054688 724.558594 317.164062 723.097656 319.238281 C 722.925781 319.476562 722.757812 319.75 722.824219 320.023438 C 722.890625 320.226562 723.0625 320.363281 723.234375 320.5 C 725.308594 322.03125 727.488281 323.460938 729.699219 324.71875 C 730.3125 325.058594 731.027344 325.433594 731.707031 325.195312 C 732.25 325.023438 732.625 324.480469 732.898438 323.96875 C 733.988281 322.097656 734.734375 320.054688 734.90625 317.4375 Z M 734.972656 317.46875 " fill-opacity="1" fill-rule="nonzero"/><path fill="#f7c920" d="M 612.628906 368.859375 C 610.585938 373.28125 607.898438 377.433594 604.664062 381.109375 C 600.582031 377.742188 596.734375 374.097656 593.164062 370.253906 C 595.785156 365.863281 599.390625 362.050781 603.710938 359.296875 C 606.539062 361.949219 609.226562 364.808594 612.628906 368.890625 Z M 612.628906 368.859375 " fill-opacity="1" fill-rule="nonzero"/><path fill="#f7c920" d="M 671.945312 474.867188 C 671.640625 471.464844 667.660156 469.421875 666.84375 466.121094 C 664.730469 469.457031 662.621094 472.792969 660.546875 476.125 C 660.410156 476.363281 660.238281 476.636719 660.238281 476.910156 C 660.238281 477.25 660.476562 477.589844 660.683594 477.863281 C 662.179688 479.699219 663.984375 481.300781 665.957031 482.625 C 666.261719 482.832031 666.636719 483.070312 667.011719 483 C 667.386719 482.96875 667.660156 482.695312 667.929688 482.457031 C 670.449219 480.039062 672.152344 476.910156 671.980469 474.867188 Z M 671.945312 474.867188 " fill-opacity="1" fill-rule="nonzero"/><path fill="#f7c920" d="M 771.117188 525.644531 C 770.265625 523.976562 769.039062 522.511719 767.578125 521.355469 L 765.296875 524.722656 C 765.160156 524.894531 765.058594 525.097656 765.058594 525.300781 C 765.058594 525.574219 765.296875 525.777344 765.5 525.949219 C 766.417969 526.730469 767.339844 527.515625 768.257812 528.296875 C 768.835938 528.773438 769.515625 529.320312 770.265625 529.113281 C 770.945312 528.945312 771.320312 528.261719 771.625 527.652344 C 772.070312 526.800781 772.511719 525.914062 771.117188 525.609375 Z M 771.117188 525.644531 " fill-opacity="1" fill-rule="nonzero"/><path fill="#f7c920" d="M 732.183594 532.246094 C 716.972656 521.796875 699.648438 512.984375 681.167969 513.050781 C 679.808594 513.050781 678.378906 513.121094 677.1875 513.765625 C 675.144531 514.855469 674.261719 517.304688 673.546875 519.515625 C 673.070312 521.046875 671.199219 522.714844 671.265625 524.351562 C 671.335938 526.5625 672.660156 529.625 673.851562 531.496094 C 678.445312 538.574219 686.238281 543.066406 693.488281 547.390625 C 700.738281 551.710938 708.597656 554.84375 716.496094 557.835938 C 725.242188 561.136719 734.292969 564.269531 743.617188 563.996094 C 744.570312 563.996094 745.523438 563.894531 746.410156 563.519531 C 748.824219 562.5 749.777344 559.640625 750.457031 557.121094 C 750.902344 555.523438 751.308594 553.890625 751.171875 552.222656 C 750.933594 549.296875 748.960938 546.84375 746.953125 544.699219 C 742.902344 540.34375 738.375 536.5 732.183594 532.246094 Z M 732.183594 532.246094 " fill-opacity="1" fill-rule="nonzero"/><path fill="#e8a217" d="M 604.871094 289.5625 C 601.601562 290.925781 598.539062 292.796875 595.785156 295.042969 C 595.339844 295.417969 594.863281 295.824219 594.695312 296.371094 C 594.488281 297.015625 594.695312 297.765625 595.070312 298.34375 C 596.261719 300.25 598.640625 300.964844 600.855469 301.40625 C 612.902344 303.789062 625.355469 302.121094 637.4375 300.046875 C 649.621094 297.96875 661.703125 295.453125 673.445312 292.625 C 683.722656 288.304688 694.476562 285.277344 704.921875 281.429688 C 715.371094 277.585938 725.648438 272.71875 734.019531 265.367188 C 736.0625 263.5625 738.140625 260.636719 736.640625 258.355469 C 735.824219 257.097656 734.226562 256.621094 732.761719 256.28125 C 712.582031 251.824219 691.652344 257.675781 671.980469 264.007812 C 661.601562 267.339844 651.253906 270.8125 640.945312 274.417969 C 636.246094 276.054688 631.585938 277.753906 627.058594 279.832031 C 619.46875 283.371094 611.8125 286.671875 604.835938 289.597656 Z M 604.871094 289.5625 " fill-opacity="1" fill-rule="nonzero"/><path fill="#e8a217" d="M 708.496094 354.871094 C 689.949219 358.613281 673.207031 368.824219 659.152344 381.484375 C 650.675781 389.105469 642.984375 397.785156 638.015625 408.027344 C 635.804688 412.589844 634.171875 417.558594 634.613281 422.59375 C 634.714844 423.921875 635.023438 425.28125 635.738281 426.441406 C 636.519531 427.632812 637.710938 428.480469 639.003906 429.128906 C 644.617188 431.917969 651.324219 431.035156 657.484375 429.773438 C 665.753906 428.074219 673.988281 425.894531 681.542969 422.117188 C 693.796875 416.027344 703.734375 406.089844 712.546875 395.605469 C 716.257812 391.183594 719.863281 386.554688 722.179688 381.210938 C 724.492188 375.867188 725.34375 369.777344 723.503906 364.296875 C 722.414062 361.097656 720.375 358.136719 717.550781 356.300781 C 714.726562 354.460938 711.183594 354.359375 708.53125 354.90625 Z M 708.496094 354.871094 " fill-opacity="1" fill-rule="nonzero"/><path fill="#e8a217" d="M 788.507812 325.773438 C 784.761719 321.757812 779.863281 318.832031 774.554688 317.402344 C 773.667969 317.164062 772.679688 316.992188 771.933594 317.46875 C 770.640625 318.285156 770.980469 320.226562 771.488281 321.65625 C 774.144531 328.734375 778.125 335.234375 782.414062 341.429688 C 795.175781 359.90625 810.96875 376.3125 828.9375 389.789062 C 834.144531 393.703125 839.65625 397.410156 845.882812 399.179688 C 847.109375 399.519531 848.675781 399.691406 849.390625 398.636719 C 849.867188 397.921875 849.695312 396.933594 849.492188 396.082031 C 848.230469 391.25 845.984375 386.726562 843.46875 382.402344 C 830.332031 359.773438 806.984375 345.613281 788.4375 325.671875 Z M 788.507812 325.773438 " fill-opacity="1" fill-rule="nonzero"/><path fill="#e8a217" d="M 785.476562 461.59375 C 775.847656 455.027344 765.226562 449.617188 753.792969 447.234375 C 742.359375 444.851562 730.074219 445.601562 719.589844 450.738281 C 717.992188 451.523438 716.324219 452.542969 715.710938 454.210938 C 715.03125 456.082031 715.882812 458.15625 716.902344 459.859375 C 723.097656 470.171875 735.210938 475.34375 746.886719 478.203125 C 756.957031 480.652344 767.644531 481.878906 777.648438 479.121094 C 781.5625 478.03125 785.546875 476.160156 787.585938 472.6875 C 789.628906 469.21875 788.777344 463.875 785.441406 461.59375 Z M 785.476562 461.59375 " fill-opacity="1" fill-rule="nonzero"/><path fill="#e8a217" d="M 744.128906 547.289062 C 726.773438 533.46875 706.21875 523.738281 684.539062 519.007812 C 683.347656 518.734375 681.953125 518.53125 681.03125 519.3125 C 680.113281 520.0625 680.046875 521.492188 680.523438 522.546875 C 681 523.601562 681.917969 524.417969 682.804688 525.199219 C 699.273438 539.253906 719.25 549.191406 740.386719 553.890625 C 742.699219 554.398438 745.695312 554.605469 746.953125 552.5625 C 747.972656 550.859375 746.304688 548.988281 744.164062 547.253906 Z M 744.128906 547.289062 " fill-opacity="1" fill-rule="nonzero"/><path fill="#e8a217" d="M 603.644531 360.011719 C 601.738281 365.796875 602.929688 372.089844 604.15625 378.046875 C 601.125 375.527344 598.097656 372.976562 595.070312 370.457031 C 597.210938 367.121094 599.5625 363.921875 602.046875 360.859375 C 602.488281 360.316406 603.101562 359.703125 603.679688 360.042969 Z M 603.644531 360.011719 " fill-opacity="1" fill-rule="nonzero"/><path fill="#e8a217" d="M 729.152344 312.738281 C 729.222656 316.722656 729.664062 320.667969 730.414062 324.546875 C 728.371094 322.984375 726.328125 321.453125 724.289062 319.886719 C 726.023438 317.503906 727.894531 315.191406 729.152344 312.738281 Z M 729.152344 312.738281 " fill-opacity="1" fill-rule="nonzero"/><path fill="#e8a217" d="M 790.34375 254.679688 C 788.609375 260.296875 787.792969 266.183594 787.925781 272.070312 C 785.273438 270.132812 782.6875 268.125 780.167969 266.015625 C 779.625 265.570312 779.011719 264.992188 779.046875 264.277344 C 779.046875 263.5625 779.691406 263.054688 780.234375 262.609375 C 783.84375 259.75 787.144531 256.484375 790.34375 254.679688 Z M 790.34375 254.679688 " fill-opacity="1" fill-rule="nonzero"/><path fill="#e8a217" d="M 667.214844 468.433594 C 666.398438 473.199219 665.921875 478.03125 665.785156 482.898438 L 660.816406 477.113281 C 660.476562 476.707031 660.105469 476.261719 660.207031 475.71875 C 660.273438 475.410156 660.476562 475.140625 660.714844 474.902344 C 662.351562 473.0625 663.984375 471.261719 665.617188 469.421875 C 665.992188 468.980469 666.433594 468.539062 667.214844 468.402344 Z M 667.214844 468.433594 " fill-opacity="1" fill-rule="nonzero"/><path fill="#e8a217" d="M 813.519531 426.101562 C 812.53125 430.488281 812.191406 435.015625 812.53125 439.507812 C 812.15625 439.816406 811.648438 439.441406 811.308594 439.101562 C 809.671875 437.433594 808.007812 435.765625 806.371094 434.097656 C 808.277344 431.476562 810.457031 429.027344 813.554688 426.066406 Z M 813.519531 426.101562 " fill-opacity="1" fill-rule="nonzero"/><path fill="#e8a217" d="M 769.039062 521.832031 L 768.597656 527.921875 C 767.269531 527.3125 766.179688 526.1875 765.636719 524.859375 C 765.5 524.554688 765.398438 524.179688 765.5 523.875 C 765.601562 523.5 765.941406 523.261719 766.25 523.054688 C 767.101562 522.476562 767.949219 521.898438 769.039062 521.832031 Z M 769.039062 521.832031 " fill-opacity="1" fill-rule="nonzero"/><path fill="#7ed957" d="M 740.519531 252.742188 C 741.882812 256.144531 741.066406 260.09375 739.226562 263.257812 C 737.390625 266.421875 734.566406 268.871094 731.671875 271.117188 C 726.363281 275.304688 720.679688 279.015625 714.726562 282.214844 C 723.234375 279.117188 730.753906 273.773438 737.867188 268.191406 C 739.773438 266.695312 741.710938 265.128906 743.105469 263.15625 C 744.503906 261.179688 745.320312 258.628906 744.742188 256.246094 C 744.164062 253.863281 741.949219 251.855469 740.519531 252.742188 Z M 740.519531 252.742188 " fill-opacity="1" fill-rule="nonzero"/><path fill="#7ed957" d="M 699.34375 294.703125 C 704.71875 294.363281 710.4375 294.089844 715.234375 296.574219 C 715.40625 296.675781 715.574219 296.746094 715.746094 296.777344 C 716.390625 296.8125 716.699219 296.03125 716.734375 295.382812 C 716.800781 292.625 714.929688 290.007812 715.335938 287.25 C 710.367188 289.15625 705.367188 291.09375 700.941406 294.023438 C 700.804688 294.089844 700.667969 294.191406 700.667969 294.363281 C 700.667969 294.53125 700.839844 294.667969 699.375 294.703125 Z M 699.34375 294.703125 " fill-opacity="1" fill-rule="nonzero"/><path fill="#7ed957" d="M 716.972656 286.738281 C 721.054688 287.25 725.070312 288.371094 728.847656 289.972656 C 729.460938 290.246094 730.34375 290.378906 730.617188 289.800781 C 730.71875 289.5625 730.652344 289.324219 730.617188 289.085938 C 730.378906 288 730.039062 286.945312 729.699219 285.886719 C 729.050781 283.878906 728.371094 281.839844 727.726562 279.832031 C 724.628906 281.976562 721.53125 284.085938 717.003906 286.738281 Z M 716.972656 286.738281 " fill-opacity="1" fill-rule="nonzero"/><path fill="#7ed957" d="M 729.1875 279.320312 C 732.695312 278.367188 736.4375 278.367188 739.941406 279.320312 C 740.386719 279.457031 740.996094 279.523438 741.203125 279.117188 C 741.304688 278.945312 741.269531 278.707031 741.203125 278.539062 C 740.828125 276.054688 739.976562 273.671875 738.71875 271.492188 C 736.605469 272.003906 735.007812 273.601562 733.476562 275.167969 C 732.320312 276.359375 731.164062 277.550781 729.121094 279.355469 Z M 729.1875 279.320312 " fill-opacity="1" fill-rule="nonzero"/><path fill="#7ed957" d="M 741.304688 273.363281 L 746.238281 270.777344 C 746.578125 270.609375 746.953125 270.402344 747.15625 270.0625 C 747.363281 269.757812 747.394531 269.382812 747.394531 269.007812 C 747.496094 267.273438 747.464844 265.539062 747.328125 263.800781 C 747.328125 263.394531 747.191406 262.882812 746.816406 262.746094 C 746.511719 262.609375 746.171875 262.78125 745.863281 262.949219 C 742.597656 264.957031 740.964844 268.738281 741.269531 273.363281 Z M 741.304688 273.363281 " fill-opacity="1" fill-rule="nonzero"/><path fill="#7ed957" d="M 678.140625 302.121094 C 682.328125 301.203125 686.683594 300.929688 690.9375 301.371094 C 692.671875 301.542969 694.441406 301.847656 696.042969 302.496094 C 697.640625 303.144531 699.105469 304.164062 700.296875 305.457031 C 699.242188 301.847656 698.183594 298.277344 697.164062 294.667969 C 696.3125 294.292969 695.328125 294.566406 694.441406 294.871094 C 688.144531 296.914062 681.917969 299.125 678.175781 302.085938 Z M 678.140625 302.121094 " fill-opacity="1" fill-rule="nonzero"/><path fill="#7ed957" d="M 654.660156 307.566406 C 658.742188 306.476562 663.0625 306.648438 667.148438 307.636719 C 671.230469 308.621094 675.113281 310.355469 678.820312 312.363281 C 678.378906 308.824219 677.359375 305.355469 675.894531 302.121094 C 675.792969 301.882812 675.65625 301.609375 675.417969 301.476562 C 675.113281 301.269531 674.703125 301.339844 674.328125 301.40625 C 668.304688 302.597656 662.417969 304.539062 654.660156 307.566406 Z M 654.660156 307.566406 " fill-opacity="1" fill-rule="nonzero"/><path fill="#7ed957" d="M 635.769531 310.289062 C 640.433594 309.675781 645.570312 309.132812 649.519531 311.753906 C 652.207031 313.523438 653.910156 316.515625 656.597656 318.285156 C 654.964844 314.679688 653.738281 310.867188 653.023438 306.988281 C 647.953125 307.054688 642.917969 307.804688 635.804688 310.324219 Z M 635.769531 310.289062 " fill-opacity="1" fill-rule="nonzero"/><path fill="#7ed957" d="M 623.585938 311.039062 C 627.023438 312.023438 630.054688 314.476562 631.753906 317.640625 C 632.640625 319.308594 633.183594 321.144531 634.339844 322.675781 C 634.476562 321.007812 634.035156 319.375 633.59375 317.777344 C 632.980469 315.53125 632.367188 313.285156 631.753906 311.039062 C 631.6875 310.765625 631.585938 310.460938 631.347656 310.289062 C 631.109375 310.117188 630.835938 310.117188 630.53125 310.117188 C 628.589844 310.117188 626.683594 310.289062 623.554688 311.039062 Z M 623.585938 311.039062 " fill-opacity="1" fill-rule="nonzero"/><path fill="#7ed957" d="M 636.757812 266.796875 C 639.886719 263.902344 644.007812 262.339844 648.023438 260.910156 C 655.507812 258.289062 663.097656 255.972656 670.753906 254 C 683.28125 250.765625 696.175781 248.351562 709.109375 248.691406 C 692.09375 250.765625 675.28125 254.171875 658.777344 258.832031 C 651.460938 260.910156 644.109375 263.257812 636.722656 266.832031 Z M 636.757812 266.796875 " fill-opacity="1" fill-rule="nonzero"/><path fill="#7ed957" d="M 730.652344 315.5625 C 731.503906 316.144531 731.910156 317.230469 731.945312 318.285156 C 731.980469 319.339844 731.636719 320.328125 731.332031 321.351562 C 731.058594 322.199219 730.820312 323.050781 730.550781 323.902344 C 732.421875 322.472656 733.988281 320.667969 735.144531 318.628906 C 733.714844 317.605469 732.320312 316.550781 730.652344 315.597656 Z M 730.652344 315.5625 " fill-opacity="1" fill-rule="nonzero"/><path fill="#7ed957" d="M 789.492188 256.757812 C 790.820312 258.5625 791.976562 260.464844 793 262.441406 C 793.203125 262.847656 793.40625 263.292969 793.371094 263.769531 C 793.339844 264.347656 792.894531 264.824219 792.523438 265.265625 C 791.195312 266.832031 790.207031 268.703125 789.628906 270.675781 C 792.113281 268.667969 794.496094 266.523438 796.707031 264.277344 C 797.082031 263.902344 797.492188 263.394531 797.320312 262.882812 C 797.253906 262.679688 797.117188 262.542969 796.980469 262.371094 C 795.109375 260.226562 793 258.324219 789.527344 256.722656 Z M 789.492188 256.757812 " fill-opacity="1" fill-rule="nonzero"/><path fill="#7ed957" d="M 770.230469 315.632812 C 772.410156 313.148438 776.050781 312.398438 779.316406 313.011719 C 782.585938 313.625 785.476562 315.292969 788.269531 317.0625 C 807.085938 328.871094 823.898438 344.21875 835.808594 363.003906 C 821.039062 345.613281 805.488281 327.644531 784.625 318.421875 C 780.167969 316.449219 775.265625 314.917969 770.230469 315.667969 Z M 770.230469 315.632812 " fill-opacity="1" fill-rule="nonzero"/><path fill="#7ed957" d="M 856.433594 397.683594 C 853.40625 400.40625 848.945312 401.085938 844.929688 400.371094 C 840.914062 399.65625 837.238281 397.71875 833.667969 395.777344 C 830.09375 393.835938 826.484375 391.796875 822.503906 390.875 C 830.707031 395.914062 839.007812 401.019531 848.230469 403.808594 C 850.546875 404.488281 853.300781 404.933594 855.070312 403.332031 C 856.773438 401.765625 856.636719 399.011719 856.398438 397.71875 Z M 856.433594 397.683594 " fill-opacity="1" fill-rule="nonzero"/><path fill="#7ed957" d="M 811.339844 387.8125 C 815.800781 389.652344 819.101562 394.007812 819.679688 398.804688 C 820.769531 397.375 821.753906 395.878906 822.640625 394.347656 C 819.238281 391.21875 815.492188 388.425781 811.339844 387.8125 Z M 811.339844 387.8125 " fill-opacity="1" fill-rule="nonzero"/><path fill="#7ed957" d="M 832.339844 400.40625 C 831.792969 401.324219 831.113281 402.175781 830.296875 402.890625 C 827.847656 400.40625 824.816406 398.5 821.484375 397.445312 C 822.332031 396.390625 823.796875 395.914062 825.191406 396.015625 C 826.585938 396.117188 827.847656 396.730469 829.003906 397.480469 C 830.398438 398.398438 831.660156 399.519531 832.371094 400.371094 Z M 832.339844 400.40625 " fill-opacity="1" fill-rule="nonzero"/><path fill="#7ed957" d="M 842.207031 405.410156 C 841.699219 406.054688 841.121094 406.734375 840.300781 406.804688 C 839.519531 406.835938 838.875 406.292969 838.261719 405.816406 C 835.945312 403.980469 833.085938 402.855469 830.125 402.617188 C 832 401.394531 834.382812 400.949219 836.558594 401.359375 C 838.738281 401.765625 840.777344 403.058594 842.175781 405.410156 Z M 842.207031 405.410156 " fill-opacity="1" fill-rule="nonzero"/><path fill="#7ed957" d="M 799.53125 375.222656 C 801.335938 377.535156 803.171875 379.882812 804.5 382.503906 C 805.828125 385.125 806.644531 388.085938 806.339844 391.011719 C 807.699219 389.039062 809.027344 387.03125 810.386719 385.058594 C 810.523438 384.820312 810.695312 384.582031 810.660156 384.308594 C 810.660156 384.070312 810.457031 383.867188 810.320312 383.695312 C 807.222656 380.292969 803.753906 377.230469 799.566406 375.222656 Z M 799.53125 375.222656 " fill-opacity="1" fill-rule="nonzero"/><path fill="#7ed957" d="M 786.394531 361.644531 C 788.777344 363.683594 790.886719 366.101562 792.214844 368.925781 C 793.542969 371.75 794.085938 375.050781 793.234375 378.082031 C 794.9375 376.582031 796.539062 374.914062 797.964844 373.113281 C 798.070312 372.976562 798.203125 372.804688 798.203125 372.636719 C 798.203125 372.363281 798.035156 372.125 797.863281 371.921875 C 794.496094 368.042969 790.957031 364.332031 786.363281 361.644531 Z M 786.394531 361.644531 " fill-opacity="1" fill-rule="nonzero"/><path fill="#7ed957" d="M 774.722656 348.746094 C 776.59375 351.332031 778.464844 353.917969 779.757812 356.8125 C 781.054688 359.703125 781.765625 362.96875 781.1875 366.101562 C 783.0625 363.855469 784.695312 361.40625 786.023438 358.820312 C 783.46875 354.90625 780.542969 351.230469 777.308594 347.859375 C 777.070312 347.621094 776.867188 347.382812 776.5625 347.28125 C 775.980469 347.042969 775.300781 347.382812 774.894531 347.859375 C 774.484375 348.335938 774.347656 348.984375 774.722656 348.746094 Z M 774.722656 348.746094 " fill-opacity="1" fill-rule="nonzero"/><path fill="#7ed957" d="M 718.636719 351.160156 C 722.6875 354.121094 725.273438 358.785156 726.328125 363.683594 C 727.382812 368.585938 726.976562 373.726562 725.886719 378.589844 C 723.402344 389.617188 717.480469 399.488281 711.660156 409.152344 C 717.210938 402.242188 721.941406 394.621094 725.648438 386.554688 C 728.507812 380.359375 730.820312 373.621094 730.210938 366.851562 C 729.597656 360.078125 725.480469 353.203125 718.636719 351.128906 Z M 718.636719 351.160156 " fill-opacity="1" fill-rule="nonzero"/><path fill="#7ed957" d="M 735.894531 372.566406 C 737.695312 376.039062 738.207031 380.089844 737.832031 383.96875 C 737.457031 387.847656 736.234375 391.625 734.804688 395.265625 C 734.597656 395.777344 734.394531 396.320312 733.953125 396.664062 C 733.542969 397.003906 733.035156 397.105469 732.523438 397.207031 C 729.5625 397.785156 726.160156 398.058594 724.253906 400.371094 C 723.472656 400.132812 723.574219 399.011719 723.878906 398.226562 C 726.261719 392.035156 728.917969 385.976562 731.570312 379.917969 C 732.898438 376.890625 734.226562 373.894531 735.894531 372.601562 Z M 735.894531 372.566406 " fill-opacity="1" fill-rule="nonzero"/><path fill="#7ed957" d="M 714.453125 412.042969 C 716.289062 410.71875 718.160156 409.425781 720.203125 408.4375 C 722.246094 407.449219 724.527344 406.871094 726.773438 407.074219 C 725.886719 404.726562 724.390625 402.617188 722.484375 400.984375 C 719.558594 403.945312 716.9375 407.246094 714.453125 412.011719 Z M 714.453125 412.042969 " fill-opacity="1" fill-rule="nonzero"/><path fill="#7ed957" d="M 702.03125 422.695312 C 706.691406 419.703125 712.273438 418.238281 717.820312 418.542969 C 716.835938 416.265625 715.472656 414.121094 713.804688 412.28125 C 713.667969 412.113281 713.5 411.941406 713.261719 411.910156 C 712.988281 411.839844 712.71875 412.011719 712.511719 412.179688 C 708.734375 414.664062 705.398438 417.796875 702.066406 422.695312 Z M 702.03125 422.695312 " fill-opacity="1" fill-rule="nonzero"/><path fill="#7ed957" d="M 687.773438 432.429688 C 689.882812 430.25 692.738281 428.925781 695.699219 428.277344 C 698.660156 427.632812 701.722656 427.632812 704.753906 427.835938 C 705.058594 427.289062 704.683594 426.644531 704.277344 426.167969 C 703.257812 425.011719 702.097656 423.988281 700.773438 423.171875 C 700.535156 423.035156 700.296875 422.902344 700.058594 422.902344 C 699.75 422.902344 699.511719 423.105469 699.273438 423.273438 C 695.769531 425.929688 692.296875 428.617188 687.773438 432.464844 Z M 687.773438 432.429688 " fill-opacity="1" fill-rule="nonzero"/><path fill="#7ed957" d="M 676.335938 438.386719 C 677.1875 437.296875 678.683594 436.988281 680.082031 436.785156 C 681.613281 436.546875 683.109375 436.308594 684.640625 436.070312 C 685.527344 435.933594 686.410156 435.800781 687.261719 435.933594 C 688.382812 436.105469 689.371094 436.648438 690.359375 437.195312 C 690.800781 435.457031 689.609375 433.757812 688.519531 432.328125 C 688.246094 431.988281 687.976562 431.613281 687.566406 431.476562 C 687.058594 431.273438 686.445312 431.476562 685.933594 431.648438 C 682.496094 432.941406 679.261719 434.777344 676.4375 437.125 C 676.097656 437.398438 675.722656 437.808594 676.335938 438.386719 Z M 676.335938 438.386719 " fill-opacity="1" fill-rule="nonzero"/><path fill="#7ed957" d="M 671.675781 428.71875 C 689.066406 423.207031 704.480469 411.601562 714.589844 396.425781 C 703.734375 408.0625 691.003906 417.964844 671.675781 428.71875 Z M 671.675781 428.71875 " fill-opacity="1" fill-rule="nonzero"/><path fill="#7ed957" d="M 642.066406 391.148438 C 643.429688 386.894531 646.117188 383.1875 649.007812 379.816406 C 658.945312 368.210938 671.914062 359.226562 686.273438 354.054688 C 688.246094 353.339844 690.289062 352.691406 692.398438 352.828125 C 683.246094 356.914062 674.058594 361.03125 665.683594 366.542969 C 657.3125 372.058594 649.757812 379.101562 642.03125 391.148438 Z M 642.066406 391.148438 " fill-opacity="1" fill-rule="nonzero"/><path fill="#7ed957" d="M 728.304688 474.253906 C 745.285156 483.816406 766.554688 485.453125 784.832031 478.609375 C 778.570312 483.136719 770.535156 484.566406 762.8125 484.769531 C 749.742188 485.144531 735.789062 481.910156 728.304688 474.253906 Z M 728.304688 474.253906 " fill-opacity="1" fill-rule="nonzero"/><path fill="#7ed957" d="M 735.925781 487.59375 C 745.25 489.5 754.644531 491.441406 764.171875 491.339844 C 767.949219 491.304688 771.796875 490.964844 775.503906 491.847656 C 776.355469 492.054688 777.207031 492.324219 778.058594 492.191406 C 778.703125 492.085938 779.285156 491.746094 779.863281 491.40625 C 783.332031 489.398438 787.078125 487.015625 788.132812 483.136719 C 780.371094 486.8125 771.863281 488.886719 763.289062 489.261719 C 760.90625 489.363281 758.523438 489.332031 756.175781 489.023438 C 754.371094 488.785156 752.566406 488.414062 750.796875 488.039062 C 743.789062 486.539062 736.8125 485.042969 729.800781 483.546875 C 731.535156 485.109375 733.171875 487.050781 735.925781 487.628906 Z M 735.925781 487.59375 " fill-opacity="1" fill-rule="nonzero"/><path fill="#7ed957" d="M 667.792969 471.667969 C 668.066406 472.960938 669.054688 474.050781 669.089844 475.34375 C 669.15625 476.976562 667.828125 478.476562 668.203125 480.074219 C 669.632812 478.507812 671.164062 476.601562 670.6875 474.5625 C 670.347656 472.996094 668.917969 471.941406 667.792969 471.703125 Z M 667.792969 471.667969 " fill-opacity="1" fill-rule="nonzero"/><path fill="#7ed957" d="M 814.132812 429.332031 C 815.390625 431.886719 815.800781 434.878906 815.253906 437.671875 C 816.992188 437.023438 817.636719 434.742188 817.09375 432.972656 C 816.546875 431.203125 815.1875 429.808594 814.132812 429.332031 Z M 814.132812 429.332031 " fill-opacity="1" fill-rule="nonzero"/><path fill="#7ed957" d="M 676.644531 517.066406 C 681.613281 514.039062 688.007812 515.230469 693.589844 516.929688 C 709.449219 521.796875 723.949219 530.167969 738.308594 538.507812 C 723.8125 523.601562 703.734375 514.242188 683.007812 512.746094 C 681.441406 512.644531 679.808594 512.574219 678.34375 513.121094 C 676.882812 513.664062 675.589844 514.957031 676.675781 517.066406 Z M 676.644531 517.066406 " fill-opacity="1" fill-rule="nonzero"/><path fill="#7ed957" d="M 690.902344 536.226562 C 692.738281 540.445312 695.9375 544.089844 699.921875 546.402344 C 703.902344 548.75 708.566406 549.839844 712.511719 552.289062 C 716.121094 554.570312 718.980469 558.007812 722.824219 559.914062 C 725.171875 561.070312 727.726562 561.613281 730.277344 562.160156 C 733.679688 562.875 737.1875 563.589844 740.621094 563.078125 C 744.058594 562.566406 747.496094 560.527344 748.6875 557.222656 C 744.808594 556.988281 740.894531 556.75 737.050781 556.167969 C 728.335938 554.808594 720.066406 551.675781 711.832031 548.511719 C 704.753906 545.824219 697.539062 543.035156 691.550781 538.40625 C 690.835938 537.859375 690.121094 536.738281 690.9375 536.226562 Z M 690.902344 536.226562 " fill-opacity="1" fill-rule="nonzero"/><path fill="#e8a217" d="M 589.726562 307.464844 C 590.507812 309.539062 591.460938 311.617188 593.0625 313.183594 C 594.660156 314.746094 596.941406 315.699219 599.117188 315.222656 C 599.765625 315.085938 600.410156 314.816406 601.058594 314.847656 C 601.570312 314.882812 602.046875 315.15625 602.488281 315.359375 C 606.230469 317.128906 610.6875 317.265625 614.535156 315.800781 C 615.726562 317.742188 618.210938 318.390625 620.457031 318.730469 C 624.300781 319.339844 628.183594 319.613281 632.0625 319.578125 C 633.046875 319.578125 634.070312 319.546875 634.953125 319.070312 C 635.839844 318.59375 636.519531 317.640625 636.316406 316.6875 C 641.046875 317.503906 645.84375 317.640625 650.609375 317.128906 C 652.105469 316.960938 653.671875 316.722656 654.828125 315.800781 C 655.984375 314.882812 656.597656 313.046875 655.714844 311.820312 C 657.6875 313.183594 660.171875 313.523438 662.589844 313.625 C 667.726562 313.898438 672.898438 313.488281 677.902344 312.433594 C 678.582031 312.296875 679.332031 312.128906 679.84375 311.652344 C 681.167969 310.527344 680.828125 308.316406 681.882812 306.886719 C 685.730469 308.519531 690.152344 308.722656 694.136719 307.429688 C 682.699219 311.582031 671.027344 315.191406 659.21875 318.183594 C 638.050781 323.5625 615.386719 326.929688 594.660156 320.125 C 593.808594 319.851562 592.957031 319.546875 592.3125 318.933594 C 591.496094 318.183594 591.121094 317.0625 590.847656 316.007812 C 590.234375 313.589844 589.964844 311.105469 589.726562 307.464844 Z M 589.726562 307.464844 " fill-opacity="1" fill-rule="nonzero"/><path fill="#e8a217" d="M 614.671875 283.371094 C 628.554688 271.152344 647.546875 267.070312 664.527344 259.785156 C 642.476562 263.460938 621.136719 271.21875 601.839844 282.554688 C 599.21875 284.085938 596.53125 285.785156 594.796875 288.269531 C 593.164062 290.617188 592.449219 293.578125 592.855469 296.402344 C 600.753906 290.585938 610.210938 287.285156 614.671875 283.371094 Z M 614.671875 283.371094 " fill-opacity="1" fill-rule="nonzero"/><path fill="#e8a217" d="M 773.328125 318.082031 C 783.195312 321.078125 792.25 326.421875 800.347656 332.820312 C 808.449219 339.214844 815.730469 346.566406 822.878906 353.984375 C 822.230469 350.753906 820.257812 347.960938 818.148438 345.410156 C 809.640625 334.996094 798.578125 326.929688 787.28125 319.613281 C 785.101562 318.21875 782.855469 316.824219 780.371094 316.246094 C 777.886719 315.667969 774.960938 316.039062 773.292969 318.082031 Z M 773.328125 318.082031 " fill-opacity="1" fill-rule="nonzero"/><path fill="#e8a217" d="M 763.933594 320.226562 C 764.207031 326.589844 764.617188 333.292969 768.1875 338.535156 C 768.5625 339.082031 768.972656 339.625 769.175781 340.238281 C 769.378906 340.816406 769.378906 341.460938 769.449219 342.109375 C 769.824219 346.941406 772.441406 351.261719 775.027344 355.347656 C 776.902344 358.308594 778.773438 361.304688 780.609375 364.265625 C 781.085938 365.011719 781.597656 365.796875 782.414062 366.136719 C 783.230469 366.476562 784.386719 366.066406 784.488281 365.183594 C 787.109375 369.0625 789.695312 372.976562 792.316406 376.855469 C 792.964844 377.808594 793.710938 378.828125 794.800781 379 C 795.617188 379.136719 796.539062 378.761719 797.285156 379.136719 C 797.796875 379.375 798.101562 379.882812 798.375 380.359375 C 800.316406 383.59375 802.5625 386.621094 805.078125 389.414062 C 792.863281 379.40625 780.507812 369.234375 770.980469 356.640625 C 766.386719 350.515625 762.472656 343.878906 759.375 336.867188 C 757.878906 333.429688 756.515625 329.753906 756.789062 326.011719 C 757.058594 322.269531 759.410156 318.457031 763.867188 320.191406 Z M 763.933594 320.226562 " fill-opacity="1" fill-rule="nonzero"/><path fill="#e8a217" d="M 643.597656 440.257812 C 662.28125 440.871094 681.851562 440.121094 698.117188 430.933594 C 692.945312 436.855469 685.898438 440.9375 678.414062 443.355469 C 670.925781 445.769531 662.996094 446.554688 655.136719 446.554688 C 652.414062 446.554688 649.621094 446.417969 647.136719 445.363281 C 644.652344 444.308594 642.507812 441.992188 643.5625 440.257812 Z M 643.597656 440.257812 " fill-opacity="1" fill-rule="nonzero"/><path fill="#e8a217" d="M 628.589844 419.632812 C 629.644531 423.617188 632.300781 426.984375 635.464844 429.640625 C 638.628906 432.292969 642.269531 434.234375 645.878906 436.207031 C 642.066406 436.140625 638.289062 435.1875 634.921875 433.417969 C 633.796875 432.839844 632.675781 432.125 631.824219 431.171875 C 630.085938 429.265625 629.542969 426.644531 629.03125 424.125 C 628.691406 422.355469 628.316406 420.585938 628.625 419.632812 Z M 628.589844 419.632812 " fill-opacity="1" fill-rule="nonzero"/><path fill="#e8a217" d="M 716.257812 469.59375 C 719.21875 472.757812 721.359375 476.570312 723.8125 480.140625 C 726.261719 483.714844 729.1875 487.152344 733.101562 488.992188 C 725.988281 486.234375 719.011719 482.421875 714.417969 476.332031 C 709.824219 470.238281 708.15625 461.457031 712.035156 454.925781 C 713.160156 460.097656 713.058594 466.1875 716.257812 469.59375 Z M 716.257812 469.59375 " fill-opacity="1" fill-rule="nonzero"/><path fill="#e8a217" d="M 677.253906 522.683594 C 681.816406 532.890625 689.269531 541.808594 698.492188 548.136719 C 689.132812 545.6875 680.691406 539.730469 675.28125 531.699219 C 673.613281 529.25 672.183594 526.359375 672.660156 523.429688 C 673.136719 520.503906 675.28125 518.257812 677.253906 522.683594 Z M 677.253906 522.683594 " fill-opacity="1" fill-rule="nonzero"/><path fill="#f7c920" d="M 646.761719 272.171875 C 638.289062 277.175781 627.875 280.035156 622.292969 288.167969 C 621.136719 289.871094 620.21875 291.980469 620.832031 293.921875 C 621.578125 296.300781 624.234375 297.390625 626.582031 298.207031 C 626.582031 299.058594 625.460938 299.332031 624.640625 299.363281 C 617.324219 299.773438 609.90625 299.058594 602.792969 297.253906 C 602.488281 293.578125 605.890625 290.722656 609.023438 288.746094 C 619.503906 282.179688 631.109375 277.347656 646.761719 272.171875 Z M 646.761719 272.171875 " fill-opacity="1" fill-rule="nonzero"/><path fill="#f7c920" d="M 789.902344 330.675781 C 788.8125 332.582031 786.53125 333.804688 786.089844 335.949219 C 785.953125 336.597656 786.023438 337.242188 786.089844 337.890625 C 786.328125 340.269531 786.769531 342.652344 787.347656 344.96875 C 782.515625 339.320312 778.398438 333.089844 775.132812 326.386719 C 774.519531 325.128906 773.90625 323.699219 774.316406 322.371094 C 774.449219 321.894531 774.757812 321.382812 775.265625 321.246094 C 775.539062 321.144531 775.847656 321.179688 776.117188 321.246094 C 777.820312 321.554688 779.285156 322.574219 780.644531 323.628906 C 783.402344 325.738281 786.023438 327.984375 789.902344 330.675781 Z M 789.902344 330.675781 " fill-opacity="1" fill-rule="nonzero"/><path fill="#f7c920" d="M 666.195312 383.628906 C 660.207031 388.152344 655.476562 394.3125 652.617188 401.257812 C 650.4375 406.496094 649.484375 412.894531 652.683594 417.589844 C 653.398438 418.613281 654.285156 419.53125 654.792969 420.65625 C 655.304688 421.777344 655.441406 423.242188 654.625 424.195312 C 654.148438 424.738281 653.433594 425.042969 652.71875 425.28125 C 649.382812 426.371094 645.265625 426.304688 642.816406 423.785156 C 640.601562 421.539062 640.332031 418 640.707031 414.835938 C 641.523438 408.335938 644.585938 402.242188 648.839844 397.242188 C 653.09375 392.238281 658.46875 388.324219 666.195312 383.59375 Z M 666.195312 383.628906 " fill-opacity="1" fill-rule="nonzero"/><path fill="#f7c920" d="M 733.882812 451.453125 C 732.183594 452.542969 730.449219 453.632812 729.019531 455.09375 C 727.589844 456.558594 726.464844 458.363281 726.226562 460.371094 C 726.089844 461.59375 726.261719 462.820312 726.363281 464.046875 C 724.796875 463.636719 723.675781 462.308594 722.789062 460.949219 C 721.703125 459.246094 720.851562 457 721.941406 455.300781 C 722.789062 453.9375 724.527344 453.496094 726.089844 453.15625 C 728.40625 452.644531 730.71875 452.167969 733.882812 451.488281 Z M 733.882812 451.453125 " fill-opacity="1" fill-rule="nonzero"/><path fill="#f7c920" d="M 692.605469 529.183594 C 690.5625 527.921875 688.691406 526.390625 686.988281 524.691406 C 686.273438 523.976562 685.59375 522.820312 686.238281 522.035156 C 686.714844 521.492188 687.566406 521.558594 688.316406 521.695312 C 690.664062 522.136719 693.011719 522.785156 695.257812 523.601562 C 693.898438 523.667969 692.570312 524.484375 691.921875 525.710938 C 691.277344 526.9375 691.378906 528.5 692.605469 529.183594 Z M 692.605469 529.183594 " fill-opacity="1" fill-rule="nonzero"/><path fill="#000000" d="M 648.636719 254.578125 C 670.007812 248.316406 691.445312 243.960938 713.566406 244.609375 C 713.667969 245.015625 713.773438 245.425781 713.90625 245.832031 C 712.75 246.140625 711.59375 246.617188 710.4375 246.71875 C 674.636719 249.269531 640.535156 258.015625 608.785156 274.894531 C 602.316406 278.332031 596.261719 282.894531 590.917969 287.929688 C 583.292969 295.109375 585.0625 300.828125 595.035156 303.925781 C 604.085938 306.75 613.445312 306.816406 622.703125 306.171875 C 651.050781 304.09375 678.378906 297.460938 704.683594 286.601562 C 716.050781 281.90625 727.179688 276.699219 736.742188 268.703125 C 738.988281 266.796875 741.066406 264.515625 742.699219 262.101562 C 745.457031 258.015625 744.878906 254.136719 740.488281 252.027344 C 735.925781 249.847656 730.71875 248.964844 725.820312 247.398438 C 724.730469 247.058594 723.8125 246.242188 722.824219 245.628906 C 723.878906 245.289062 724.96875 244.609375 725.988281 244.710938 C 731.808594 245.390625 737.730469 246.171875 742.527344 249.816406 C 744.503906 251.3125 746.066406 253.695312 747.019531 256.007812 C 748.382812 259.242188 749.027344 262.746094 749.914062 266.183594 C 751.445312 272.308594 749.914062 277.414062 745.183594 281.738281 C 734.804688 291.164062 722.585938 297.527344 709.960938 303.246094 C 687.191406 313.554688 663.335938 320.160156 638.664062 323.664062 C 625.96875 325.46875 613.105469 326.421875 600.410156 323.1875 C 597.65625 322.472656 594.761719 321.757812 592.3125 320.363281 C 590.542969 319.375 588.808594 317.539062 588.09375 315.667969 C 585.980469 310.222656 584.417969 304.570312 582.613281 299.023438 C 581.457031 295.417969 582.476562 291.980469 584.6875 289.359375 C 588.023438 285.445312 591.597656 281.53125 595.75 278.503906 C 610.28125 267.886719 626.992188 261.65625 643.90625 256.007812 C 645.367188 255.53125 646.863281 255.089844 648.601562 254.578125 Z M 660.851562 305.761719 C 659.046875 306.136719 657.246094 306.511719 655.238281 306.953125 C 656.222656 310.527344 657.144531 313.761719 658.097656 317.230469 C 664.5625 315.53125 670.890625 313.863281 677.390625 312.128906 C 676.8125 309.371094 676.234375 307.023438 675.894531 304.640625 C 675.621094 302.699219 674.738281 302.257812 672.96875 302.734375 C 669.121094 303.753906 665.242188 304.675781 660.851562 305.761719 Z M 653.367188 311.445312 C 653.058594 310.1875 652.71875 308.960938 652.378906 307.636719 C 646.046875 308.585938 639.992188 309.472656 633.492188 310.460938 C 634.546875 314.101562 635.429688 317.300781 636.453125 320.839844 C 642.917969 319.816406 649.042969 318.867188 655.40625 317.878906 C 654.660156 315.53125 654.113281 313.726562 653.367188 311.480469 Z M 697.84375 299.5 C 697.46875 298.242188 697.128906 297.015625 696.6875 295.519531 C 690.324219 297.5625 684.164062 299.535156 677.664062 301.644531 C 678.515625 304.808594 679.367188 307.90625 680.285156 311.308594 C 686.921875 308.929688 693.320312 306.648438 699.648438 304.367188 C 699.003906 302.632812 698.492188 301.304688 697.84375 299.5 Z M 616.101562 316.246094 C 616.578125 318.015625 617.085938 319.816406 617.632812 321.894531 C 622.976562 321.585938 628.183594 321.28125 633.59375 320.976562 C 632.640625 317.230469 631.789062 313.863281 630.9375 310.492188 C 625.425781 310.765625 620.183594 311.039062 614.671875 311.308594 C 615.148438 312.976562 615.523438 314.339844 616.066406 316.246094 Z M 706.421875 291.503906 C 704.039062 292.523438 701.621094 293.511719 699.242188 294.53125 C 700.296875 297.628906 701.214844 300.386719 702.234375 303.347656 C 706.589844 301.339844 710.710938 299.535156 714.726562 297.492188 C 715.507812 297.085938 716.359375 295.65625 716.257812 294.804688 C 716.019531 292.558594 715.269531 290.378906 714.621094 287.894531 C 711.832031 289.121094 709.347656 290.210938 706.386719 291.503906 Z M 607.253906 321.078125 C 609.703125 321.246094 612.117188 321.417969 614.910156 321.621094 C 614.09375 318.152344 613.480469 315.257812 612.628906 312.46875 C 612.457031 311.855469 611.472656 311.140625 610.824219 311.070312 C 607.355469 310.664062 603.882812 310.425781 599.933594 310.085938 C 600.855469 313.625 601.671875 316.859375 602.554688 320.292969 C 603.882812 320.53125 605.277344 320.804688 607.253906 321.113281 Z M 728.269531 283.949219 C 727.996094 283.03125 727.691406 282.109375 727.316406 280.953125 C 723.8125 282.925781 720.375 284.832031 716.867188 286.773438 C 717.652344 289.664062 718.367188 292.355469 719.183594 295.382812 C 722.859375 293.273438 726.160156 291.332031 729.390625 289.460938 C 729.019531 287.625 728.679688 286.023438 728.269531 283.949219 Z M 739.773438 274.964844 C 739.671875 274.078125 739.535156 273.195312 739.398438 272.105469 C 735.824219 274.828125 732.589844 277.277344 729.324219 279.796875 C 730.003906 282.484375 730.652344 285.171875 731.332031 287.929688 C 740.929688 282.585938 741.371094 281.941406 739.773438 274.964844 Z M 597.585938 311.414062 C 597.144531 310.628906 596.90625 309.4375 596.261719 309.132812 C 594.015625 308.144531 591.597656 307.429688 589.179688 306.613281 C 590.339844 314.578125 593.570312 318.558594 599.492188 319.238281 C 598.914062 316.722656 598.335938 314.304688 597.585938 311.378906 Z M 743.039062 278.300781 C 744.367188 276.9375 746.578125 275.679688 746.78125 274.179688 C 747.191406 271.085938 746.511719 267.816406 746.238281 263.734375 C 744.605469 265.84375 743.515625 267.070312 742.632812 268.429688 C 742.085938 269.246094 741.371094 270.300781 741.472656 271.1875 C 741.710938 273.433594 742.359375 275.679688 743.039062 278.332031 Z M 743.039062 278.300781 " fill-opacity="1" fill-rule="nonzero"/><path fill="#000000" d="M 626.753906 427.972656 C 622.976562 418.273438 624.914062 409.152344 628.863281 400.40625 C 637.03125 382.335938 650.746094 369.234375 667.316406 358.886719 C 677.9375 352.25 689.335938 347.589844 701.929688 346.535156 C 704.921875 346.261719 708.019531 346.804688 711.050781 346.976562 C 711.050781 347.453125 711.082031 347.929688 711.117188 348.40625 C 710.367188 348.644531 709.652344 349.050781 708.90625 349.085938 C 690.492188 349.730469 674.667969 357.015625 660.238281 367.871094 C 648.398438 376.789062 638.492188 387.441406 632.539062 401.1875 C 630.597656 405.679688 629.339844 410.648438 628.863281 415.480469 C 627.363281 430.59375 638.152344 437.433594 649.894531 438.046875 C 661.769531 438.65625 672.628906 435.085938 682.972656 429.808594 C 698.933594 421.675781 712.308594 410.511719 722.210938 395.402344 C 726.773438 388.460938 730.003906 380.941406 730.6875 372.636719 C 731.46875 363.074219 727.214844 354.121094 716.222656 350.890625 C 714.757812 350.445312 711.730469 350.992188 712.648438 347.996094 C 712.820312 347.417969 715.949219 347.28125 717.515625 347.691406 C 722.585938 348.984375 726.773438 351.773438 729.9375 356.027344 C 731.671875 358.375 733.648438 360.554688 735.3125 362.96875 C 741.507812 372.058594 741.472656 381.6875 737.425781 391.558594 C 732.046875 404.625 723.472656 415.277344 712.75 424.363281 C 699.648438 435.425781 685.21875 443.863281 668.339844 447.710938 C 661.941406 449.171875 655.40625 450.433594 649.007812 448.5625 C 645.675781 447.574219 642.542969 445.328125 639.785156 443.117188 C 634.613281 438.929688 629.78125 434.371094 626.785156 427.9375 Z M 704.890625 426.746094 C 708.9375 423.511719 712.988281 420.246094 716.222656 417.660156 C 714.894531 415.71875 713.875 414.289062 712.886719 412.828125 C 709.3125 416.058594 706.046875 419.054688 703.1875 421.640625 C 703.699219 423.648438 704.105469 425.25 704.074219 426.816406 C 702.746094 425.894531 701.417969 424.976562 700.089844 424.058594 C 696.519531 426.441406 692.976562 428.789062 689.40625 431.171875 C 690.390625 432.566406 691.242188 433.789062 692.46875 435.527344 C 696.621094 432.464844 700.535156 429.605469 704.890625 426.746094 Z M 736.300781 386.316406 C 736.574219 383.59375 737.117188 380.835938 736.949219 378.113281 C 736.84375 376.550781 735.65625 375.019531 734.90625 373.382812 C 731.773438 377.875 734.089844 381.28125 735.925781 384.75 C 735.65625 384.851562 735.382812 384.957031 735.144531 385.058594 C 734.226562 384.242188 733.339844 383.457031 732.386719 382.605469 C 730.027344 387.667969 730.335938 391.671875 733.304688 394.621094 C 734.292969 391.933594 735.210938 389.378906 736.300781 386.28125 Z M 717.515625 407.550781 C 716.628906 408.503906 715.746094 409.492188 714.894531 410.445312 C 716.085938 412.113281 717.140625 413.609375 718.367188 415.277344 C 721.054688 412.113281 723.640625 409.015625 726.328125 405.851562 C 724.832031 404.457031 723.503906 403.195312 722.109375 401.867188 C 720.679688 403.640625 719.25 405.410156 717.515625 407.550781 Z M 688.722656 436.886719 C 691.71875 433.996094 687.125 434.164062 687.261719 432.292969 C 683.28125 434.164062 679.636719 435.902344 675.757812 437.703125 C 676.746094 439.066406 677.628906 440.257812 678.617188 441.652344 C 681.953125 440.085938 685.152344 438.625 688.691406 436.886719 Z M 731.535156 397.886719 C 732.421875 394.789062 728.746094 394.824219 728.167969 392.171875 C 726.566406 394.824219 725.273438 396.96875 724.015625 399.078125 C 725.242188 400.710938 726.363281 402.242188 727.691406 404.011719 C 728.949219 401.972656 730.105469 400.097656 731.535156 397.886719 Z M 667.285156 444.714844 C 670.3125 443.964844 673.34375 443.21875 676.746094 442.367188 C 675.351562 440.734375 674.363281 439.578125 673.375 438.453125 C 670.3125 439.339844 667.351562 440.15625 664.121094 441.074219 C 665.070312 442.300781 665.921875 443.457031 667.285156 444.714844 Z M 655.851562 442.128906 C 655.03125 442.195312 654.183594 442.230469 653.261719 442.300781 C 655.851562 446.519531 658.503906 447.164062 664.015625 445.125 C 662.824219 440.734375 659.628906 441.414062 655.851562 442.164062 Z M 645.199219 441.515625 C 644.277344 441.347656 643.324219 441.175781 641.929688 440.902344 C 644.824219 444.375 648.125 445.839844 652.207031 446.007812 C 651.152344 442.367188 648.5 441.824219 645.164062 441.515625 Z M 645.199219 441.515625 " fill-opacity="1" fill-rule="nonzero"/><g clip-path="url(#946672af4f)"><path fill="#000000" d="M 770.0625 328.019531 C 775.472656 339.691406 782.957031 349.730469 791.09375 359.261719 C 803.445312 373.726562 817.195312 386.757812 833.460938 396.765625 C 837.851562 399.453125 842.683594 401.664062 847.621094 403.128906 C 854.121094 405.066406 857.453125 401.664062 856.261719 394.996094 C 855.785156 392.304688 854.765625 389.6875 854.015625 387.03125 C 853.777344 386.179688 853.609375 385.328125 853.40625 384.480469 C 853.644531 384.34375 853.914062 384.207031 854.152344 384.070312 C 854.664062 384.511719 855.480469 384.851562 855.617188 385.363281 C 856.738281 389.820312 858.507812 394.3125 858.542969 398.804688 C 858.578125 406.703125 845.679688 415.3125 838.261719 412.625 C 833.597656 410.957031 828.9375 408.949219 824.714844 406.394531 C 798.375 390.296875 776.902344 369.199219 761.28125 342.515625 C 758.21875 337.3125 756.890625 331.015625 755.359375 325.058594 C 754.882812 323.222656 755.9375 320.464844 757.195312 318.832031 C 759.714844 315.496094 762.8125 312.601562 765.773438 309.609375 C 768.496094 306.886719 772.070312 306.375 775.371094 307.53125 C 781.15625 309.609375 787.179688 311.652344 792.316406 314.882812 C 813.078125 328.019531 830.058594 345.171875 844.078125 365.285156 C 846.769531 369.128906 849.015625 373.25 851.464844 377.265625 C 851.160156 377.535156 850.816406 377.773438 850.511719 378.046875 C 849.832031 377.296875 849.015625 376.582031 848.4375 375.734375 C 833.429688 352.898438 815.050781 333.328125 792.113281 318.320312 C 787.449219 315.257812 782.039062 313.285156 776.902344 311.039062 C 775.4375 310.390625 773.632812 310.355469 772 310.390625 C 768.664062 310.390625 766.691406 311.957031 767.03125 315.222656 C 767.507812 319.445312 768.902344 323.5625 770.027344 327.953125 Z M 791.160156 376.890625 C 791.910156 377.058594 792.929688 377.671875 793.304688 377.367188 C 794.9375 376.140625 796.367188 374.675781 798.070312 373.113281 C 794.460938 369.128906 791.058594 365.386719 787.6875 361.675781 C 785.816406 363.683594 784.148438 365.523438 782.242188 367.566406 C 784.933594 370.355469 787.859375 373.453125 791.160156 376.855469 Z M 777.546875 362.050781 C 778.464844 363.074219 779.417969 364.09375 780.542969 365.285156 C 782.515625 363.207031 784.21875 361.40625 785.953125 359.601562 C 782.957031 355.6875 780.167969 352.082031 776.933594 347.859375 C 775.0625 350.140625 773.496094 352.082031 771.726562 354.222656 C 773.496094 356.605469 775.371094 359.160156 777.582031 362.050781 Z M 799.429688 384.75 C 801.574219 386.554688 803.71875 388.359375 805.863281 390.160156 C 807.597656 388.289062 809.0625 386.726562 810.625 385.023438 C 806.816406 381.484375 803.242188 378.148438 799.667969 374.8125 C 797.761719 376.652344 796.0625 378.285156 794.292969 379.988281 C 796.027344 381.585938 797.523438 383.015625 799.394531 384.75 Z M 767.066406 338.230469 C 765.875 339.183594 764.648438 340.136719 763.355469 341.191406 C 765.804688 345.105469 767.917969 348.40625 770.128906 351.976562 C 772.339844 349.902344 774.210938 348.132812 776.117188 346.363281 C 773.871094 342.722656 771.796875 339.386719 769.617188 335.914062 C 768.664062 336.765625 768.019531 337.34375 767.066406 338.261719 Z M 808.175781 390.945312 C 811.171875 393.464844 814.164062 396.015625 817.195312 398.464844 C 817.398438 398.636719 818.25 398.226562 818.625 397.886719 C 819.847656 396.832031 821.007812 395.675781 822.402344 394.3125 C 818.894531 391.589844 815.664062 389.074219 812.738281 386.828125 C 811.101562 388.289062 809.777344 389.449219 808.175781 390.945312 Z M 762.539062 327.613281 C 758.726562 331.355469 758.832031 334.316406 763.152344 339.183594 C 764.648438 337.785156 766.25 336.492188 767.644531 334.960938 C 768.121094 334.453125 768.394531 333.328125 768.15625 332.714844 C 767.269531 330.367188 766.148438 328.121094 764.957031 325.570312 C 764.140625 326.214844 763.492188 326.761719 762.503906 327.578125 Z M 830.433594 401.765625 C 830.839844 401.289062 831.214844 400.847656 831.660156 400.335938 C 822.640625 394.621094 825.261719 394.144531 819.746094 400.203125 C 820.460938 400.710938 821.140625 401.257812 821.890625 401.699219 C 823.59375 402.71875 825.292969 403.707031 826.996094 404.695312 C 828.117188 403.742188 829.140625 402.890625 830.46875 401.765625 Z M 832.476562 407.585938 C 837.683594 409.933594 837.785156 409.933594 841.730469 405.035156 C 833.394531 400.8125 832.578125 400.847656 829.175781 405.851562 C 830.125 406.359375 831.078125 406.871094 832.476562 407.585938 Z M 761.757812 325.433594 C 765.839844 323.253906 763.390625 320.089844 763.289062 316.992188 C 758.183594 320.976562 756.925781 324.039062 758.726562 328.222656 C 759.679688 327.339844 760.53125 326.554688 761.757812 325.433594 Z M 845.269531 410.445312 C 846.699219 409.253906 848.164062 408.0625 849.59375 406.871094 C 844.761719 404.351562 842.308594 407.210938 839.960938 410.921875 C 841.59375 410.820312 843.195312 410.71875 845.269531 410.410156 Z M 845.269531 410.445312 " fill-opacity="1" fill-rule="nonzero"/></g><path fill="#000000" d="M 691.105469 287.894531 C 671.335938 294.667969 651.425781 299.808594 630.972656 302.429688 C 621.035156 303.6875 610.960938 304.777344 600.957031 302.597656 C 597.179688 301.78125 592.992188 300.964844 591.800781 296.574219 C 590.644531 292.386719 593.671875 289.5625 596.292969 286.875 C 597.585938 285.546875 599.324219 284.628906 601.464844 283.0625 C 601.160156 285.855469 600.988281 287.65625 600.753906 290.109375 C 603.710938 288.371094 606.128906 286.976562 608.476562 285.617188 C 608.546875 285.242188 608.679688 285.039062 608.648438 284.832031 C 607.015625 279.046875 606.980469 279.046875 612.253906 276.324219 C 633.082031 265.640625 655.304688 259.140625 678.003906 254.035156 C 691.445312 251.003906 705.09375 248.863281 718.910156 248.792969 C 723.605469 248.792969 728.40625 249.472656 732.933594 250.664062 C 740.386719 252.640625 741.78125 257.675781 736.8125 263.53125 C 731.296875 269.996094 723.914062 273.910156 716.359375 277.347656 C 708.15625 281.089844 699.714844 284.355469 691.140625 287.894531 Z M 620.558594 282.042969 C 611.710938 286.332031 602.894531 290.617188 595.410156 297.628906 C 600.515625 300.761719 605.925781 301.066406 611.300781 301.101562 C 628.761719 301.238281 645.777344 298.070312 662.589844 293.75 C 683.992188 288.269531 704.992188 281.632812 723.980469 269.925781 C 728.234375 267.308594 731.980469 263.902344 736.300781 260.601562 C 732.113281 257.300781 728.066406 256.894531 724.015625 256.722656 C 711.558594 256.246094 699.375 258.152344 687.226562 260.671875 C 664.425781 265.433594 642.269531 272.207031 620.558594 282.007812 Z M 655 262.167969 C 654.929688 263.597656 654.828125 265.027344 654.726562 266.695312 C 658.570312 265.539062 661.875 264.550781 665.414062 263.460938 C 665.003906 261.964844 664.664062 260.671875 664.289062 259.242188 C 661.089844 260.226562 658.300781 261.078125 655 262.167969 Z M 621.308594 274.554688 C 621.171875 276.019531 621 277.449219 620.832031 279.355469 C 624.710938 277.722656 627.910156 276.394531 631.175781 275 C 630.800781 273.535156 630.460938 272.242188 630.085938 270.710938 C 627.09375 272.003906 624.402344 273.125 621.339844 274.554688 Z M 632.707031 271.5625 C 632.777344 272.378906 632.878906 273.230469 632.980469 274.316406 C 635.160156 273.5 637.0625 272.515625 639.070312 272.070312 C 642.40625 271.355469 643.429688 269.621094 642.167969 266.21875 C 639.378906 267.238281 636.585938 268.226562 633.863281 269.347656 C 633.355469 269.554688 633.117188 270.4375 632.707031 271.5625 Z M 614.398438 282.519531 C 615.964844 281.738281 617.53125 280.988281 619.164062 280.171875 C 618.890625 278.742188 618.652344 277.414062 618.378906 275.882812 C 616.476562 276.835938 614.808594 277.652344 613.140625 278.503906 C 610.78125 279.730469 609.953125 281.679688 610.65625 284.355469 C 611.746094 283.8125 612.832031 283.234375 614.363281 282.519531 Z M 684.605469 258.152344 C 684.539062 257.097656 684.4375 256.042969 684.367188 254.953125 C 674.601562 256.792969 674.941406 255.804688 675.722656 260.910156 C 678.652344 260.125 681.507812 259.378906 684.605469 258.152344 Z M 644.6875 267.308594 C 644.789062 268.125 644.890625 268.941406 644.992188 269.925781 C 647.886719 268.90625 650.507812 267.988281 653.09375 267.070312 C 652.820312 265.503906 652.582031 264.210938 652.34375 262.847656 C 650.167969 263.53125 648.054688 264.039062 646.046875 264.855469 C 645.402344 265.128906 645.09375 266.117188 644.6875 267.308594 Z M 724.832031 251.449219 C 724.289062 251.925781 723.742188 252.402344 723.199219 252.878906 C 723.710938 253.285156 724.1875 253.964844 724.796875 254.070312 C 728.574219 254.816406 732.386719 255.464844 736.4375 256.179688 C 733.542969 252.367188 729.257812 252.433594 724.832031 251.449219 Z M 696.3125 252.742188 C 695.566406 253.796875 694.851562 254.816406 694.101562 255.871094 C 694.40625 256.144531 694.679688 256.417969 694.984375 256.6875 C 697.402344 256.347656 699.820312 255.972656 702.4375 255.601562 C 702.371094 254.339844 702.335938 253.285156 702.269531 251.992188 C 700.296875 252.265625 698.59375 252.503906 696.3125 252.742188 Z M 666.738281 259.308594 L 666.738281 263.121094 C 674.429688 261.113281 673.445312 262.40625 672.628906 257.199219 C 670.722656 257.742188 668.851562 258.289062 666.738281 259.308594 Z M 711.21875 251.414062 C 709.890625 251.414062 708.566406 251.414062 707.273438 251.449219 C 704.789062 251.480469 703.96875 252.671875 704.890625 255.257812 C 707.375 254.953125 709.824219 254.648438 712.648438 254.308594 C 712.34375 253.21875 712.070312 252.367188 711.253906 251.414062 Z M 692.160156 257.269531 C 692.535156 256.109375 692.910156 254.953125 693.488281 253.183594 C 690.628906 253.695312 688.65625 254.070312 686.546875 254.441406 C 686.648438 255.839844 686.714844 256.996094 686.820312 258.324219 C 688.621094 257.949219 690.152344 257.640625 692.195312 257.269531 Z M 719.351562 253.964844 C 720 253.421875 720.679688 252.878906 721.328125 252.300781 C 721.121094 252.0625 720.953125 251.789062 720.75 251.550781 L 713.941406 251.550781 C 714.078125 252.640625 714.179688 253.421875 714.316406 254.273438 C 715.984375 254.171875 717.414062 254.070312 719.386719 253.964844 Z M 595.613281 291.09375 C 595.035156 292.386719 594.488281 293.648438 593.910156 294.941406 C 594.21875 295.109375 594.558594 295.246094 594.863281 295.417969 C 595.714844 292.832031 600.957031 292.796875 598.507812 287.964844 C 597.519531 288.984375 596.703125 289.871094 595.613281 291.09375 Z M 595.613281 291.09375 " fill-opacity="1" fill-rule="nonzero"/><path fill="#000000" d="M 638.628906 410.851562 C 637.746094 414.632812 636.996094 418.171875 636.042969 421.675781 C 635.769531 422.730469 634.921875 423.617188 634.035156 425.078125 C 631.109375 420.144531 631.449219 415.582031 632.402344 411.226562 C 634.714844 400.335938 640.839844 391.421875 648.191406 383.355469 C 661.023438 369.335938 676.132812 358.648438 694.644531 353.441406 C 700.535156 351.773438 706.488281 350.992188 712.613281 352.320312 C 721.597656 354.257812 726.703125 361.8125 725.445312 370.933594 C 723.675781 383.832031 716.699219 393.871094 708.226562 403.058594 C 695.804688 416.535156 681.03125 426.507812 663.300781 431.75 C 656.871094 433.65625 650.335938 434.371094 643.734375 432.804688 C 642.238281 432.464844 640.839844 431.613281 639.414062 431 C 639.445312 430.695312 639.515625 430.355469 639.546875 430.046875 C 640.195312 429.878906 640.976562 429.367188 641.453125 429.535156 C 651.664062 433.519531 661.328125 430.796875 670.585938 426.746094 C 692.160156 417.25 709.414062 402.789062 720.035156 381.3125 C 722.382812 376.550781 723.84375 371.375 722.722656 365.929688 C 721.054688 357.898438 716.019531 355.347656 707.101562 356.675781 C 689.304688 359.328125 674.941406 368.519531 662.113281 380.292969 C 655.167969 386.691406 649.214844 394.210938 643.191406 401.527344 C 641.078125 404.082031 640.160156 407.585938 638.59375 410.886719 Z M 639.683594 402.277344 C 654.964844 378.796875 675.996094 362.9375 702.914062 354.121094 C 699.648438 354.835938 696.621094 355.382812 693.691406 356.199219 C 677.015625 361.03125 663.269531 370.660156 651.355469 382.949219 C 644.246094 390.265625 638.1875 398.464844 635.160156 408.4375 C 634.070312 412.078125 632.675781 415.855469 633.933594 418.886719 C 635.632812 413.847656 637.507812 408.265625 639.683594 402.277344 Z M 639.683594 402.277344 " fill-opacity="1" fill-rule="nonzero"/><path fill="#000000" d="M 766.726562 442.300781 C 776.390625 445.972656 785.070312 450.601562 790.753906 459.144531 C 790.546875 459.449219 790.308594 459.757812 790.105469 460.0625 C 789.59375 459.757812 789.015625 459.554688 788.640625 459.179688 C 778.09375 447.949219 764.683594 442.84375 749.8125 440.835938 C 742.257812 439.816406 734.703125 439.917969 727.453125 442.300781 C 723.640625 443.558594 719.828125 445.429688 716.628906 447.847656 C 711.082031 452.03125 709.859375 458.394531 713.226562 464.453125 C 714.964844 467.585938 717.210938 470.75 720 472.925781 C 736.742188 486.0625 755.699219 490.488281 776.527344 485.824219 C 779.589844 485.144531 782.550781 483.578125 785.273438 481.945312 C 792.113281 477.828125 794.019531 471.328125 791.09375 463.875 C 790.753906 462.992188 791.09375 461.832031 791.125 460.777344 C 791.875 461.457031 792.929688 462.003906 793.339844 462.820312 C 796.808594 469.832031 794.425781 481.910156 788.914062 487.5625 C 782.414062 494.199219 774.078125 495.695312 765.535156 496 C 746.273438 496.648438 728.746094 491.542969 714.042969 478.507812 C 709.722656 474.699219 707.714844 470.035156 707.816406 464.179688 C 708.019531 450.703125 713.023438 443.660156 726.058594 440.019531 C 729.867188 438.964844 733.851562 438.351562 737.796875 438.078125 C 747.632812 437.363281 757.230469 438.996094 766.792969 442.332031 Z M 782.480469 489.332031 C 781.972656 488.648438 781.496094 487.96875 780.949219 487.253906 C 775.847656 488.414062 775.675781 488.617188 776.253906 492.871094 C 778.601562 491.609375 780.746094 490.421875 783.367188 489.261719 C 785 487.902344 787.65625 487.324219 787.078125 484.15625 C 784.488281 485.078125 782.515625 486.269531 782.480469 489.332031 Z M 754.03125 489.808594 C 751.886719 489.535156 749.742188 489.230469 747.496094 488.921875 C 747.125 490.214844 746.851562 491.203125 746.511719 492.496094 C 749.914062 493.007812 753.011719 493.449219 756.210938 493.925781 C 756.378906 491.984375 757.808594 489.910156 754.066406 489.808594 Z M 744.910156 491.78125 C 744.773438 490.589844 744.980469 488.582031 744.402344 488.34375 C 742.019531 487.324219 739.433594 486.8125 736.710938 486.0625 C 736.4375 487.222656 736.234375 488.140625 735.996094 489.296875 C 738.957031 490.183594 741.710938 491.03125 744.910156 491.78125 Z M 763.253906 494.0625 C 764.308594 493.992188 765.398438 493.890625 766.625 493.789062 C 766.691406 492.496094 766.757812 491.476562 766.828125 490.285156 C 766.011719 490.214844 765.464844 490.183594 764.957031 490.183594 C 763.085938 490.183594 761.246094 490.183594 759.203125 490.183594 C 758.898438 491.507812 758.660156 492.597656 758.320312 494.09375 C 760.054688 494.09375 761.347656 494.09375 763.289062 494.09375 Z M 729.800781 482.933594 C 728.949219 482.59375 728.097656 482.285156 727.214844 481.910156 C 726.296875 485.246094 727.964844 486.609375 734.15625 488.039062 C 735.210938 486.335938 735.246094 485.042969 732.964844 484.328125 C 732.011719 484.023438 731.164062 483.546875 729.800781 482.898438 Z M 773.15625 493.175781 C 773.566406 491.984375 774.007812 490.828125 774.484375 489.46875 C 769.109375 489.398438 768.972656 489.46875 768.765625 493.824219 C 770.09375 493.617188 771.386719 493.449219 773.191406 493.175781 Z M 721.226562 481.605469 C 722.382812 482.320312 723.503906 483.070312 724.796875 483.851562 C 726.636719 478.984375 722.074219 479.359375 720.613281 477.351562 C 720.238281 477.523438 719.863281 477.691406 719.488281 477.894531 C 719.964844 479.054688 720.40625 480.175781 721.257812 481.605469 Z M 718.398438 476.839844 C 717.3125 475.242188 716.1875 473.640625 714.65625 471.429688 C 714.214844 472.925781 713.703125 473.746094 713.90625 474.117188 C 714.828125 475.546875 715.949219 476.875 717.039062 478.167969 C 717.074219 478.203125 717.855469 477.625 718.367188 476.839844 Z M 712.410156 469.046875 C 711.796875 468.09375 711.152344 467.109375 710.539062 466.15625 C 710.265625 466.257812 709.996094 466.359375 709.722656 466.496094 C 710.300781 468.503906 710.914062 470.511719 711.492188 472.519531 C 711.796875 472.484375 712.105469 472.453125 712.410156 472.417969 C 712.480469 471.429688 712.582031 470.441406 712.410156 469.082031 Z M 712.410156 469.046875 " fill-opacity="1" fill-rule="nonzero"/><path fill="#000000" d="M 802.324219 328.359375 C 818.625 341.804688 833.054688 356.707031 845 373.894531 C 848.742188 379.273438 851.398438 385.464844 854.1875 391.421875 C 855.34375 393.941406 855.855469 397.410156 853.199219 399.042969 C 851.261719 400.234375 847.859375 400.574219 845.746094 399.691406 C 840.371094 397.480469 834.960938 394.925781 830.296875 391.523438 C 808.484375 375.765625 789.902344 356.8125 775.503906 333.976562 C 773.226562 330.367188 771.421875 326.316406 770.164062 322.269531 C 768.019531 315.429688 771.285156 312.195312 778.226562 313.863281 C 779.863281 314.269531 781.425781 315.085938 783.707031 316.007812 C 781.800781 317.027344 780.644531 317.675781 779.046875 318.558594 C 781.15625 319.785156 782.824219 320.804688 784.457031 321.722656 C 784.796875 321.621094 785.101562 321.65625 785.203125 321.519531 C 787.484375 318.355469 789.867188 318.832031 792.589844 321.078125 C 795.6875 323.597656 798.953125 325.84375 802.355469 328.359375 Z M 777.617188 320.125 C 775.777344 319.339844 773.90625 318.59375 772.070312 317.808594 C 771.695312 318.117188 771.355469 318.421875 770.980469 318.695312 C 772.476562 322.507812 773.566406 326.589844 775.574219 330.128906 C 785.070312 346.976562 797.933594 361.066406 812.023438 374.132812 C 821.140625 382.574219 830.601562 390.570312 841.96875 395.914062 C 844.078125 396.902344 846.394531 397.511719 848.605469 398.296875 C 848.980469 397.988281 849.320312 397.683594 849.695312 397.375 C 848.707031 394.449219 848.0625 391.351562 846.667969 388.664062 C 839.554688 374.949219 829.378906 363.582031 818.625 352.761719 C 806.371094 340.40625 793.578125 328.699219 777.617188 320.125 Z M 794.632812 327.40625 C 796.230469 329.175781 797.730469 331.046875 799.53125 332.582031 C 799.90625 332.886719 801.335938 331.933594 802.832031 331.320312 C 801.097656 329.890625 800.109375 328.800781 798.886719 328.15625 C 797.726562 327.578125 796.265625 327.476562 794.597656 327.40625 Z M 818.761719 350.140625 C 820.222656 351.945312 821.515625 352.183594 822.640625 349.835938 C 818.453125 344.21875 818.011719 344.015625 814.539062 346.601562 C 815.902344 347.722656 817.160156 348.746094 818.761719 350.140625 Z M 806.816406 338.875 C 807.871094 338.605469 808.890625 338.296875 810.148438 337.957031 C 805.417969 332.410156 804.433594 332 801.878906 334.351562 C 801.984375 334.554688 802.050781 334.792969 802.1875 334.929688 C 803.582031 336.152344 804.976562 337.378906 806.78125 338.875 Z M 790.820312 326.113281 C 791.976562 326.011719 793.132812 325.945312 794.292969 325.84375 C 789.390625 320.667969 788.980469 320.566406 786.464844 322.984375 C 787.792969 323.9375 789.117188 324.890625 790.820312 326.078125 Z M 827.8125 356.945312 C 825.160156 359.703125 828.9375 360.113281 829.617188 361.609375 C 830.535156 363.617188 831.964844 363.074219 833.496094 361.132812 C 831.726562 359.667969 829.957031 358.238281 827.8125 356.980469 Z M 810.015625 341.734375 C 811.238281 342.824219 812.429688 343.878906 813.996094 345.273438 C 814.8125 344.492188 815.492188 343.84375 816.277344 343.097656 C 814.746094 341.632812 813.722656 340.476562 812.5 339.589844 C 811.070312 338.535156 809.910156 339.351562 810.015625 341.734375 Z M 840.644531 370.695312 C 839.484375 369.640625 838.90625 366.75 836.421875 369.574219 C 837.207031 370.628906 837.886719 371.785156 838.804688 372.667969 C 839.28125 373.144531 840.199219 373.179688 840.949219 373.417969 C 840.949219 372.636719 840.949219 371.851562 840.644531 370.695312 Z M 852.078125 391.320312 C 851.464844 389.820312 850.851562 388.324219 850.273438 386.828125 C 849.832031 386.964844 849.390625 387.132812 848.945312 387.269531 C 849.898438 390.265625 850.851562 393.292969 851.804688 396.289062 C 852.078125 396.253906 852.351562 396.21875 852.621094 396.1875 C 852.484375 394.757812 852.316406 393.292969 852.078125 391.320312 Z M 825.125 356.300781 C 825.90625 355.824219 826.65625 355.382812 827.472656 354.871094 C 825.429688 352.421875 823.21875 352.046875 820.835938 353.746094 C 822.230469 354.632812 823.457031 355.414062 825.125 356.265625 Z M 844.421875 380.054688 C 847.652344 378.691406 844.898438 377.195312 844.316406 376.039062 C 843.945312 375.289062 842.546875 375.085938 841.628906 374.609375 C 841.425781 374.949219 841.222656 375.289062 841.015625 375.597656 C 842.003906 376.992188 843.023438 378.386719 844.421875 380.019531 Z M 833.324219 363.789062 C 831.421875 365.964844 834.175781 366.40625 834.890625 367.566406 C 835.0625 367.835938 836.558594 367.292969 837.410156 367.121094 C 837.476562 366.78125 837.546875 366.40625 837.648438 366.066406 C 836.355469 365.25 835.027344 364.398438 833.324219 363.789062 Z M 845.507812 382.097656 C 846.394531 383.320312 847.246094 384.582031 848.128906 385.804688 C 848.539062 385.535156 848.945312 385.261719 849.390625 384.988281 C 848.84375 383.898438 848.402344 382.675781 847.652344 381.757812 C 847.347656 381.382812 846.257812 381.652344 845.542969 382.0625 Z M 845.507812 382.097656 " fill-opacity="1" fill-rule="nonzero"/><path fill="#000000" d="M 679.46875 524.28125 C 687.089844 532.859375 696.414062 538.847656 706.148438 544.121094 C 716.867188 549.941406 728.03125 554.773438 740.214844 556.714844 C 742.394531 557.054688 744.640625 557.15625 746.816406 556.882812 C 750.730469 556.40625 751.988281 554.128906 750.355469 550.554688 C 749.539062 548.785156 748.246094 547.21875 747.191406 545.550781 C 746.816406 544.972656 746.511719 544.359375 745.964844 543.375 C 751.308594 545.859375 753.792969 552.390625 751.582031 557.019531 C 747.835938 564.847656 745.589844 566.105469 736.980469 564.675781 C 715.40625 561.136719 696.382812 551.847656 679.605469 538.066406 C 676.03125 535.136719 673.476562 530.882812 670.789062 527.039062 C 670.074219 526.015625 670.210938 524.042969 670.652344 522.714844 C 671.539062 520.097656 672.796875 517.613281 674.058594 515.160156 C 675.792969 511.792969 679.160156 510.941406 682.292969 511.382812 C 688.589844 512.269531 695.019531 513.253906 701.011719 515.261719 C 715.574219 520.128906 728.984375 527.34375 740.726562 537.417969 C 741.542969 538.132812 742.394531 538.78125 743.242188 539.460938 C 743.039062 539.730469 742.835938 540.039062 742.632812 540.3125 C 741.949219 539.867188 741.203125 539.425781 740.554688 538.949219 C 725.445312 527.414062 709.007812 518.53125 690.324219 514.414062 C 686.953125 513.664062 683.28125 513.492188 679.84375 513.867188 C 675.792969 514.308594 674.90625 516.523438 676.8125 520.230469 C 677.492188 521.59375 678.515625 522.820312 679.5 524.28125 Z M 699.683594 549.738281 C 701.722656 550.757812 703.765625 551.78125 705.910156 552.867188 C 706.796875 551.199219 707.511719 549.90625 708.257812 548.445312 C 705.128906 546.707031 702.269531 545.144531 699.171875 543.40625 C 698.320312 545.109375 697.605469 546.539062 696.890625 548.070312 C 697.777344 548.613281 698.527344 549.058594 699.714844 549.738281 Z M 691.683594 538.4375 C 687.296875 535.886719 688.960938 540.753906 686.953125 541.773438 C 689.984375 543.78125 692.570312 545.484375 695.359375 547.320312 C 696.246094 545.449219 696.960938 543.984375 697.675781 542.488281 C 695.667969 541.128906 693.863281 539.902344 691.683594 538.40625 Z M 708.632812 554.195312 C 711.355469 555.320312 714.042969 556.441406 716.867188 557.597656 C 717.582031 556 718.160156 554.742188 718.808594 553.3125 C 715.574219 551.847656 712.613281 550.519531 709.007812 548.886719 C 708.699219 550.894531 708.464844 552.390625 708.632812 554.160156 Z M 687.601562 537.996094 C 687.535156 537.078125 687.875 535.820312 687.363281 535.308594 C 685.867188 533.742188 684.0625 532.484375 682.394531 531.054688 C 678.957031 536.023438 679.296875 536.90625 686.105469 540.550781 C 686.511719 539.835938 686.953125 539.085938 687.636719 537.960938 Z M 727.65625 558.175781 C 727.554688 557.597656 727.621094 556.578125 727.316406 556.441406 C 725.035156 555.523438 722.6875 554.773438 720.238281 553.957031 C 719.589844 555.558594 719.082031 556.816406 718.503906 558.210938 C 720.511719 558.859375 722.3125 559.367188 724.015625 560.050781 C 725.71875 560.730469 726.738281 560.152344 727.621094 558.144531 Z M 676.335938 532.347656 C 676.746094 533.367188 677.152344 534.421875 677.527344 535.445312 C 677.96875 535.035156 678.445312 534.59375 678.890625 534.183594 C 679.636719 532.753906 680.386719 531.359375 681.167969 529.863281 C 679.738281 528.296875 678.414062 526.867188 677.050781 525.4375 C 675.191406 528.230469 674.941406 530.53125 676.304688 532.347656 Z M 737.21875 558.960938 C 736.503906 559.980469 735.789062 561.035156 735.007812 562.125 C 740.113281 564.066406 741.132812 563.65625 742.9375 559.335938 C 741.167969 559.164062 739.433594 559.027344 737.21875 558.925781 Z M 730.277344 557.257812 C 729.460938 558.382812 728.609375 559.539062 727.519531 561.035156 C 729.902344 561.582031 731.671875 561.988281 733.542969 562.398438 C 734.257812 561.070312 734.90625 559.945312 735.621094 558.621094 C 733.882812 558.144531 732.320312 557.734375 730.277344 557.257812 Z M 672.457031 523.429688 C 672.558594 524.996094 672.660156 526.527344 672.761719 528.09375 C 675.214844 525.675781 677.121094 523.398438 673.75 520.640625 C 673.34375 521.457031 672.96875 522.207031 672.421875 523.429688 Z M 747.363281 560.628906 C 747.597656 560.117188 747.871094 559.574219 748.109375 559.0625 C 747.804688 558.789062 747.496094 558.484375 747.191406 558.210938 C 745.726562 559.574219 744.230469 560.898438 742.765625 562.261719 C 743.105469 562.667969 743.449219 563.113281 743.789062 563.519531 C 744.878906 562.703125 745.964844 561.851562 747.328125 560.628906 Z M 747.363281 560.628906 " fill-opacity="1" fill-rule="nonzero"/><path fill="#000000" d="M 717.039062 453.902344 C 714.859375 453.632812 715.066406 452.371094 716.121094 451.453125 C 718.332031 449.515625 720.511719 447.269531 723.097656 446.078125 C 732.488281 441.753906 742.460938 441.925781 752.433594 443.457031 C 764.105469 445.226562 774.996094 448.933594 784.046875 456.863281 C 785.375 458.023438 786.601562 459.347656 787.621094 460.777344 C 792.316406 467.414062 790.957031 474.085938 784.117188 478.371094 C 777.070312 482.796875 769.140625 483.648438 761.109375 483.375 C 746.273438 482.832031 732.457031 479.085938 720.78125 469.421875 C 717.71875 466.871094 714.859375 463.910156 715.097656 459.179688 C 715.542969 459.6875 715.949219 460.199219 716.390625 460.746094 C 718.707031 463.636719 720.511719 467.246094 723.4375 469.320312 C 739.464844 480.722656 757.332031 483.886719 776.457031 479.800781 C 780.472656 478.953125 784.21875 477.078125 786.667969 473.472656 C 788.914062 470.136719 788.8125 467.175781 786.15625 464.214844 C 779.214844 456.492188 770.09375 452.679688 760.292969 450.261719 C 750.765625 447.949219 741.03125 446.585938 731.332031 448.324219 C 726.464844 449.207031 721.941406 451.929688 717.039062 453.902344 Z M 754.710938 445.394531 C 742.289062 443.320312 730.105469 442.707031 719.082031 450.398438 C 730.652344 444.035156 742.867188 444.816406 755.121094 447.574219 C 762.265625 449.171875 769.277344 451.316406 775.949219 453.121094 C 769.855469 449.308594 762.675781 447.0625 754.710938 445.394531 Z M 754.710938 445.394531 " fill-opacity="1" fill-rule="nonzero"/><path fill="#000000" d="M 735.007812 553.921875 C 716.835938 548.613281 700.464844 540.378906 685.867188 528.738281 C 683.484375 526.835938 681.269531 524.554688 679.5 522.070312 C 676.675781 518.121094 678.277344 515.296875 683.109375 515.09375 C 684.097656 515.058594 685.050781 515.160156 686.476562 515.230469 C 685.832031 516.183594 685.390625 516.863281 684.84375 517.679688 C 686.851562 518.394531 688.691406 519.621094 690.085938 516.691406 C 690.289062 516.25 692.027344 516.214844 692.945312 516.453125 C 709.925781 521.253906 725.375 529.183594 739.464844 539.730469 C 742.527344 542.011719 745.320312 544.804688 747.734375 547.765625 C 748.789062 549.058594 749.4375 551.675781 748.859375 553.074219 C 748.382812 554.230469 745.796875 555.082031 744.128906 555.082031 C 741.203125 555.082031 738.242188 554.367188 735.042969 553.921875 Z M 712.035156 528.636719 C 701.828125 524.078125 691.582031 519.585938 679.84375 519.3125 C 681.203125 521.796875 682.667969 524.113281 684.640625 525.8125 C 700.058594 538.882812 717.617188 547.832031 737.1875 552.835938 C 739.941406 553.550781 742.902344 553.480469 746.035156 553.789062 C 744.230469 546.980469 732.25 538.269531 712.035156 528.605469 Z M 718.128906 527.785156 C 715.972656 526.628906 714.417969 526.628906 713.464844 527.785156 C 714.65625 528.398438 715.746094 529.148438 716.972656 529.488281 C 717.3125 529.589844 717.992188 528.5 718.09375 527.785156 Z M 707.882812 523.804688 C 706.320312 522.070312 704.683594 520.574219 702.304688 523.5 C 704.105469 523.703125 705.910156 523.941406 707.882812 523.804688 Z M 701.113281 522.171875 C 702.675781 520.300781 700.738281 520.128906 699.820312 519.925781 C 698.695312 519.652344 697.46875 519.859375 696.3125 519.859375 C 696.3125 520.199219 696.3125 520.574219 696.347656 520.914062 C 697.777344 521.390625 699.242188 521.898438 701.113281 522.171875 Z M 691.074219 519.3125 C 692.535156 519.449219 694.304688 521.390625 695.667969 518.5625 C 694.304688 518.15625 693.25 517.644531 692.230469 517.679688 C 691.683594 517.679688 691.175781 518.632812 691.074219 519.3125 Z M 691.074219 519.3125 " fill-opacity="1" fill-rule="nonzero"/><path fill="#000000" d="M 678.992188 389.175781 C 679.367188 389.449219 679.570312 389.582031 679.738281 389.652344 C 685.253906 391.933594 689.78125 394.996094 689.234375 401.9375 C 688.792969 407.757812 683.074219 414.597656 676.8125 416.058594 C 673.546875 416.808594 670.039062 416.945312 666.636719 416.773438 C 664.492188 416.671875 663.507812 417.25 662.65625 419.054688 C 662.078125 420.246094 661.089844 421.199219 660.273438 422.253906 C 659.96875 422.085938 659.660156 421.949219 659.355469 421.777344 C 660 419.804688 660.648438 417.828125 661.328125 415.789062 C 654.554688 408.777344 658.128906 399.964844 665.140625 397.71875 C 664.1875 399.25 663.609375 400.335938 662.894531 401.324219 C 657.824219 408.199219 659.867188 413.710938 668.203125 414.527344 C 674.667969 415.175781 681.644531 412.828125 684.980469 405.78125 C 687.636719 400.132812 686.308594 396.527344 680.761719 393.566406 C 678.550781 392.375 675.996094 390.808594 674.875 388.734375 C 671.945312 383.390625 674.363281 377.296875 679.84375 374.609375 C 680.625 374.234375 681.441406 373.792969 682.257812 373.589844 C 685.898438 372.636719 689.40625 371.582031 690.597656 367.328125 C 690.765625 366.75 691.855469 366.441406 692.535156 366 C 692.84375 366.203125 693.148438 366.40625 693.488281 366.613281 C 692.738281 368.621094 691.992188 370.628906 691.207031 372.636719 C 698.695312 376.582031 700.363281 378.929688 698.253906 383.082031 C 697.8125 382.539062 697.335938 382.128906 697.097656 381.621094 C 694.984375 376.753906 691.277344 374.269531 686.171875 375.121094 C 682.632812 375.699219 678.890625 376.652344 677.222656 380.429688 C 675.828125 383.527344 676.539062 386.453125 678.921875 389.175781 Z M 678.992188 389.175781 " fill-opacity="1" fill-rule="nonzero"/><path fill="#000000" d="M 788.539062 249.441406 C 789.695312 249.882812 791.125 250.292969 791.5 251.140625 C 793.371094 255.464844 796.300781 258.730469 800.316406 261.113281 C 802.015625 262.132812 802.085938 263.257812 800.585938 264.824219 C 797.117188 268.429688 793.816406 272.242188 790.445312 275.949219 C 790.003906 276.425781 789.527344 276.835938 788.710938 277.585938 C 786.601562 272.242188 782.789062 268.804688 778.160156 266.117188 C 775.980469 264.855469 775.4375 263.085938 778.09375 261.65625 C 783.0625 258.933594 786.394531 254.851562 788.609375 249.472656 Z M 790.582031 256.757812 C 790.277344 256.347656 789.933594 255.941406 789.902344 255.871094 C 786.804688 258.664062 783.808594 261.386719 781.019531 263.871094 C 783.808594 266.253906 786.667969 268.703125 789.527344 271.152344 C 789.015625 270.746094 788.507812 270.371094 787.996094 269.960938 C 790.921875 267.679688 793.847656 265.402344 796.433594 263.359375 C 794.597656 261.316406 792.691406 259.207031 790.582031 256.757812 Z M 790.582031 256.757812 " fill-opacity="1" fill-rule="nonzero"/><path fill="#000000" d="M 613.515625 366.40625 C 613.445312 367.632812 613.445312 368.859375 612.902344 369.707031 C 610.859375 372.941406 608.476562 375.972656 606.503906 379.238281 C 604.664062 382.300781 604.054688 382.234375 601.703125 379.441406 C 599.1875 376.445312 596.292969 373.691406 593.265625 371.242188 C 591.496094 369.8125 590.917969 369.164062 592.753906 367.257812 C 595.511719 364.367188 598.0625 361.167969 600.308594 357.832031 C 601.773438 355.621094 602.589844 355.414062 604.394531 357.421875 C 607.21875 360.519531 610.316406 363.34375 613.480469 366.441406 Z M 597.894531 366.988281 C 597.179688 367.566406 596.496094 368.175781 595.953125 368.621094 C 598.777344 371.308594 601.464844 373.828125 604.019531 376.242188 C 606.164062 373.179688 608.238281 370.152344 610.316406 367.191406 C 607.695312 364.910156 605.039062 362.628906 602.589844 360.519531 C 601.125 362.5625 599.664062 364.605469 597.859375 366.988281 Z M 597.894531 366.988281 " fill-opacity="1" fill-rule="nonzero"/><path fill="#000000" d="M 736.710938 459.519531 C 733.882812 461.730469 734.089844 464.078125 735.65625 466.699219 C 738.105469 470.851562 743.039062 473.234375 747.464844 472.28125 C 752.296875 471.226562 753.65625 469.015625 752.464844 464.113281 C 751.480469 460.132812 752.566406 457.171875 756.074219 455.539062 C 757.46875 454.890625 759.339844 454.617188 760.839844 454.957031 C 764.71875 455.84375 767.609375 459.925781 772.546875 457.511719 C 772.546875 457.988281 772.511719 458.464844 772.476562 458.972656 C 771.320312 459.519531 770.195312 460.097656 769.175781 460.574219 C 768.902344 462.992188 768.734375 465.441406 768.324219 467.890625 C 768.257812 468.367188 767.234375 468.707031 766.078125 469.523438 C 766.417969 468.230469 766.519531 467.652344 766.726562 467.074219 C 768.496094 462.039062 764.71875 456.59375 759.375 456.558594 C 756.3125 456.558594 753.726562 459.585938 754.507812 462.683594 C 755.597656 466.902344 755.632812 470.679688 751.410156 473.164062 C 747.15625 475.648438 740.964844 474.765625 737.152344 471.261719 C 736.980469 471.125 736.84375 470.953125 736.710938 470.785156 C 734.53125 468.402344 733.101562 464.65625 729.257812 466.53125 C 730.6875 464.351562 732.113281 462.070312 733.648438 459.894531 C 735.789062 456.863281 739.058594 456.148438 743.175781 457.953125 C 740.828125 458.5 738.886719 458.941406 736.675781 459.519531 Z M 736.710938 459.519531 " fill-opacity="1" fill-rule="nonzero"/><path fill="#000000" d="M 657.652344 474.152344 C 661.363281 472.792969 662.691406 469.832031 663.847656 466.664062 C 664.121094 465.882812 664.902344 464.863281 665.582031 464.761719 C 666.332031 464.65625 667.453125 465.304688 667.964844 465.949219 C 670.277344 468.945312 672.457031 472.042969 674.769531 475.242188 C 672.390625 478.78125 669.667969 482.796875 666.671875 487.222656 C 665.71875 485.960938 665.070312 485.007812 664.289062 484.191406 C 662.214844 482.015625 660.171875 479.769531 657.925781 477.761719 C 656.632812 476.601562 655.375 475.753906 657.621094 474.152344 Z M 665.140625 479.699219 C 665.546875 480.3125 665.957031 480.890625 666.46875 481.605469 C 667.929688 479.324219 669.257812 477.25 670.585938 475.171875 C 669.15625 473.539062 667.761719 471.941406 666.5 470.476562 C 664.902344 472.417969 663.371094 474.222656 661.839844 476.058594 C 662.824219 477.113281 663.882812 478.238281 665.175781 479.699219 Z M 665.140625 479.699219 " fill-opacity="1" fill-rule="nonzero"/><path fill="#000000" d="M 816.683594 428.277344 C 819.566406 431.636719 819.757812 435.09375 817.261719 438.65625 C 816.957031 439.101562 816.617188 439.542969 816.34375 440.019531 C 813.554688 444.613281 813.585938 444.578125 809.671875 440.664062 C 807.460938 438.453125 805.046875 436.445312 802.730469 434.335938 C 804.875 432.496094 806.984375 430.761719 808.992188 428.957031 C 809.640625 428.378906 810.21875 427.664062 810.59375 426.882812 C 812.292969 423.34375 813.214844 423.242188 815.492188 426.371094 C 815.867188 426.917969 816.207031 427.496094 816.683594 428.242188 Z M 814.199219 437.160156 C 814.984375 435.867188 815.730469 434.539062 816.445312 433.347656 C 815.1875 431.917969 814.0625 430.660156 812.941406 429.367188 C 811.207031 431.171875 809.570312 432.871094 808.449219 434.027344 C 809.84375 435.628906 811.445312 437.398438 813.078125 439.234375 C 813.417969 438.65625 813.722656 438.113281 814.199219 437.125 Z M 814.199219 437.160156 " fill-opacity="1" fill-rule="nonzero"/><path fill="#000000" d="M 733.578125 314 C 737.96875 318.492188 737.933594 318.457031 733.714844 322.984375 C 732.558594 324.242188 731.636719 325.738281 730.480469 327.304688 C 727.316406 324.515625 724.253906 321.792969 721.089844 319 C 723.878906 315.9375 726.636719 312.945312 729.800781 309.472656 C 730.753906 310.664062 732.082031 312.261719 733.578125 314.03125 Z M 725.886719 317.367188 C 725.375 317.777344 724.898438 318.183594 724.457031 318.558594 C 726.433594 320.292969 728.304688 321.929688 730.210938 323.628906 C 731.671875 322.097656 733.171875 320.53125 734.632812 319 C 732.761719 317.265625 731.058594 315.734375 729.085938 313.898438 C 728.132812 314.953125 727.179688 316.039062 725.921875 317.367188 Z M 725.886719 317.367188 " fill-opacity="1" fill-rule="nonzero"/><path fill="#000000" d="M 771.421875 521.320312 C 772.679688 522.921875 774.757812 524.382812 774.6875 525.710938 C 774.585938 527.105469 772.238281 528.230469 771.21875 529.726562 C 769.925781 531.597656 768.972656 531.699219 767.371094 530.066406 C 765.804688 528.46875 763.933594 527.140625 762.132812 525.609375 C 763.902344 523.636719 765.636719 521.285156 767.847656 519.484375 C 769.347656 518.222656 770.671875 519.382812 771.457031 521.320312 Z M 770.640625 525.675781 C 769.890625 524.792969 769.140625 523.90625 768.289062 522.851562 C 767.203125 523.839844 766.488281 524.453125 765.636719 525.199219 C 766.996094 526.289062 767.984375 527.074219 769.074219 527.921875 C 769.71875 527.207031 770.230469 526.628906 770.640625 525.644531 Z M 770.640625 525.675781 " fill-opacity="1" fill-rule="nonzero"/><path fill="#000000" d="M 633.082031 286.5 C 633.695312 285.683594 634.171875 284.933594 634.445312 284.085938 C 634.648438 283.4375 634.683594 282.722656 634.75 282.042969 C 635.464844 282.347656 636.484375 282.484375 636.859375 283.03125 C 640.09375 287.625 644.753906 289.460938 650.097656 290.175781 C 654.554688 290.789062 658.539062 289.699219 661.738281 286.738281 C 662.722656 285.820312 662.929688 283.710938 662.929688 282.144531 C 662.929688 281.054688 661.90625 280 661.5 278.84375 C 660.238281 275.269531 661.261719 272.378906 664.425781 270.234375 C 669.566406 266.726562 675.007812 266.558594 680.386719 269.316406 C 682.359375 270.335938 683.960938 270.507812 685.933594 269.859375 C 687.398438 269.417969 688.996094 269.347656 690.527344 269.109375 C 690.699219 269.621094 690.867188 270.132812 691.039062 270.609375 C 689.167969 271.425781 687.296875 272.242188 685.21875 273.160156 C 686.171875 275.339844 687.667969 277.992188 684.265625 280.171875 C 682.019531 271.117188 674.769531 267.917969 666.875 272.105469 C 664.1875 273.535156 663.371094 275.507812 664.289062 278.402344 C 665.242188 281.363281 667.214844 284.390625 664.460938 287.386719 C 661.429688 290.6875 658.097656 293.339844 653.160156 293.375 C 647.578125 293.410156 642.476562 292.285156 637.847656 289.054688 C 637.097656 288.542969 635.667969 288.816406 634.613281 289.054688 C 632.300781 289.496094 630.019531 290.140625 627.707031 290.722656 L 627.160156 289.121094 C 629.03125 288.269531 630.902344 287.386719 633.015625 286.46875 Z M 633.082031 286.5 " fill-opacity="1" fill-rule="nonzero"/><path fill="#000000" d="M 825.429688 372.464844 C 824.785156 375.222656 823.355469 374.269531 822.570312 373.042969 C 820.734375 370.117188 818.078125 369.164062 814.878906 368.347656 C 812.53125 367.734375 810.59375 365.589844 808.449219 364.09375 C 808.753906 363.617188 809.0625 363.140625 809.367188 362.664062 C 810.796875 363.515625 812.125 364.570312 813.65625 365.113281 C 815.085938 365.625 816.71875 365.558594 818.285156 365.726562 C 818.386719 364.160156 818.929688 362.460938 818.554688 361.03125 C 817.433594 356.777344 811.207031 352.453125 806.609375 352.421875 C 804.5 352.421875 802.425781 352.625 800.316406 352.589844 C 795.277344 352.488281 792.25 349.253906 792.046875 344.21875 C 792.011719 343.128906 791.195312 342.007812 790.582031 341.019531 C 789.832031 339.792969 788.914062 338.707031 788.0625 337.546875 L 789.050781 336.628906 C 790.34375 337.652344 791.601562 338.707031 792.488281 339.421875 C 794.5625 338.910156 796.300781 338.46875 798 338.058594 C 798.101562 338.367188 798.238281 338.707031 798.339844 339.011719 C 798.035156 339.351562 797.761719 339.929688 797.355469 340.03125 C 794.699219 340.851562 793.949219 342.890625 794.425781 345.207031 C 794.9375 347.757812 796.707031 349.460938 799.464844 349.664062 C 800.996094 349.765625 802.5625 349.699219 804.09375 349.527344 C 811.308594 348.710938 819.476562 354.15625 821.347656 361.097656 C 821.449219 361.507812 821.617188 361.984375 821.550781 362.390625 C 820.597656 366.542969 822.777344 369.472656 825.429688 372.5 Z M 825.429688 372.464844 " fill-opacity="1" fill-rule="nonzero"/><path fill="#000000" d="M 700.566406 530.238281 C 701.691406 533.777344 703.460938 536.5 707 537.554688 C 708.699219 538.066406 710.097656 537.960938 710.980469 535.851562 C 712.683594 531.734375 716.628906 531.15625 719.796875 534.558594 C 721.835938 536.738281 723.539062 539.1875 725.070312 541.128906 C 723.605469 541.671875 721.90625 542.320312 720.40625 542.863281 C 720.40625 541.398438 720.953125 539.425781 720.273438 538.03125 C 719.558594 536.5 717.820312 535.34375 716.324219 534.390625 C 714.726562 533.335938 713.464844 534.082031 712.546875 535.714844 C 710.234375 539.835938 706.488281 540.414062 702.914062 537.214844 C 701.859375 536.261719 700.976562 535.105469 700.160156 533.945312 C 698.527344 531.699219 696.992188 529.386719 695.53125 527.277344 L 700.5 527.277344 C 700.5 527.921875 700.566406 528.976562 700.667969 530.269531 Z M 700.566406 530.238281 " fill-opacity="1" fill-rule="nonzero"/></svg>